M48
; DRILL file {KiCad 9.0.0} date 2025-10-29T11:22:24-0400
; FORMAT={-:-/ absolute / metric / decimal}
; #@! TF.CreationDate,2025-10-29T11:22:24-04:00
; #@! TF.GenerationSoftware,Kicad,Pcbnew,9.0.0
; #@! TF.FileFunction,MixedPlating,1,2
FMAT,2
METRIC
; #@! TA.AperFunction,Plated,PTH,ViaDrill
T1C0.300
; #@! TA.AperFunction,Plated,PTH,ComponentDrill
T2C1.000
; #@! TA.AperFunction,NonPlated,NPTH,ComponentDrill
T3C2.200
%
G90
G05
T1
X44.6Y-57.0
X45.0Y-34.1
X45.05Y-32.45
X45.05Y-33.25
X45.5Y-47.4
X45.5Y-48.15
X45.5Y-48.95
X46.052Y-62.785
X46.052Y-63.605
X46.052Y-64.455
X46.85Y-34.2
X46.872Y-64.795
X46.9Y-33.25
X47.35Y-48.9
X47.622Y-63.435
X48.492Y-63.435
X49.322Y-63.975
X49.6Y-48.9
X50.042Y-62.845
X50.152Y-63.955
X50.4Y-48.9
X50.732Y-63.365
X51.15Y-47.7
X51.366Y-44.491
X51.382Y-45.7
X51.4Y-46.7
X52.0Y-47.7
X52.15Y-48.55
X52.65Y-33.45
X52.7Y-31.6
X52.7Y-32.5
X52.75Y-45.7
X52.76Y-46.7
X52.8Y-44.5
X52.8Y-47.7
X53.75Y-33.45
X53.8Y-31.6
X54.75Y-31.6
X54.75Y-33.45
X56.55Y-32.2
X56.8Y-39.75
X57.012Y-62.695
X57.25Y-61.1
X57.5Y-32.2
X58.05Y-30.05
X58.05Y-30.9
X60.802Y-63.225
T2
X43.2Y-33.41
X43.2Y-35.95
X43.97Y-45.65
X43.97Y-48.19
X44.0Y-54.5
X44.25Y-64.16
X44.25Y-66.7
X61.4Y-34.95
X61.5Y-45.25
X61.762Y-57.775
T3
X41.75Y-73.25
X42.0Y-26.0
X62.0Y-26.0
X62.25Y-73.25
M30
