%TF.GenerationSoftware,KiCad,Pcbnew,9.0.0*%
%TF.CreationDate,2025-10-29T11:22:27-04:00*%
%TF.ProjectId,voltage-regulator,766f6c74-6167-4652-9d72-6567756c6174,rev?*%
%TF.SameCoordinates,Original*%
%TF.FileFunction,Copper,L1,Top*%
%TF.FilePolarity,Positive*%
%FSLAX46Y46*%
G04 Gerber Fmt 4.6, Leading zero omitted, Abs format (unit mm)*
G04 Created by KiCad (PCBNEW 9.0.0) date 2025-10-29 11:22:27*
%MOMM*%
%LPD*%
G01*
G04 APERTURE LIST*
G04 Aperture macros list*
%AMRoundRect*
0 Rectangle with rounded corners*
0 $1 Rounding radius*
0 $2 $3 $4 $5 $6 $7 $8 $9 X,Y pos of 4 corners*
0 Add a 4 corners polygon primitive as box body*
4,1,4,$2,$3,$4,$5,$6,$7,$8,$9,$2,$3,0*
0 Add four circle primitives for the rounded corners*
1,1,$1+$1,$2,$3*
1,1,$1+$1,$4,$5*
1,1,$1+$1,$6,$7*
1,1,$1+$1,$8,$9*
0 Add four rect primitives between the rounded corners*
20,1,$1+$1,$2,$3,$4,$5,0*
20,1,$1+$1,$4,$5,$6,$7,0*
20,1,$1+$1,$6,$7,$8,$9,0*
20,1,$1+$1,$8,$9,$2,$3,0*%
G04 Aperture macros list end*
%TA.AperFunction,SMDPad,CuDef*%
%ADD10R,3.400000X2.400000*%
%TD*%
%TA.AperFunction,SMDPad,CuDef*%
%ADD11RoundRect,0.250000X-0.475000X0.250000X-0.475000X-0.250000X0.475000X-0.250000X0.475000X0.250000X0*%
%TD*%
%TA.AperFunction,ComponentPad*%
%ADD12C,2.000000*%
%TD*%
%TA.AperFunction,SMDPad,CuDef*%
%ADD13R,0.950000X0.350000*%
%TD*%
%TA.AperFunction,SMDPad,CuDef*%
%ADD14R,2.300000X3.230000*%
%TD*%
%TA.AperFunction,SMDPad,CuDef*%
%ADD15RoundRect,0.135000X0.185000X-0.135000X0.185000X0.135000X-0.185000X0.135000X-0.185000X-0.135000X0*%
%TD*%
%TA.AperFunction,SMDPad,CuDef*%
%ADD16RoundRect,0.140000X0.170000X-0.140000X0.170000X0.140000X-0.170000X0.140000X-0.170000X-0.140000X0*%
%TD*%
%TA.AperFunction,SMDPad,CuDef*%
%ADD17RoundRect,0.218750X-0.218750X-0.256250X0.218750X-0.256250X0.218750X0.256250X-0.218750X0.256250X0*%
%TD*%
%TA.AperFunction,SMDPad,CuDef*%
%ADD18RoundRect,0.200000X0.275000X-0.200000X0.275000X0.200000X-0.275000X0.200000X-0.275000X-0.200000X0*%
%TD*%
%TA.AperFunction,SMDPad,CuDef*%
%ADD19RoundRect,0.135000X-0.185000X0.135000X-0.185000X-0.135000X0.185000X-0.135000X0.185000X0.135000X0*%
%TD*%
%TA.AperFunction,SMDPad,CuDef*%
%ADD20RoundRect,0.250000X0.475000X-0.250000X0.475000X0.250000X-0.475000X0.250000X-0.475000X-0.250000X0*%
%TD*%
%TA.AperFunction,SMDPad,CuDef*%
%ADD21RoundRect,0.135000X0.135000X0.185000X-0.135000X0.185000X-0.135000X-0.185000X0.135000X-0.185000X0*%
%TD*%
%TA.AperFunction,SMDPad,CuDef*%
%ADD22RoundRect,0.140000X0.140000X0.170000X-0.140000X0.170000X-0.140000X-0.170000X0.140000X-0.170000X0*%
%TD*%
%TA.AperFunction,SMDPad,CuDef*%
%ADD23RoundRect,0.225000X0.250000X-0.225000X0.250000X0.225000X-0.250000X0.225000X-0.250000X-0.225000X0*%
%TD*%
%TA.AperFunction,SMDPad,CuDef*%
%ADD24RoundRect,0.225000X-0.250000X0.225000X-0.250000X-0.225000X0.250000X-0.225000X0.250000X0.225000X0*%
%TD*%
%TA.AperFunction,ComponentPad*%
%ADD25R,1.700000X1.700000*%
%TD*%
%TA.AperFunction,ComponentPad*%
%ADD26O,1.700000X1.700000*%
%TD*%
%TA.AperFunction,SMDPad,CuDef*%
%ADD27RoundRect,0.218750X0.218750X0.256250X-0.218750X0.256250X-0.218750X-0.256250X0.218750X-0.256250X0*%
%TD*%
%TA.AperFunction,SMDPad,CuDef*%
%ADD28RoundRect,0.218750X0.256250X-0.218750X0.256250X0.218750X-0.256250X0.218750X-0.256250X-0.218750X0*%
%TD*%
%TA.AperFunction,SMDPad,CuDef*%
%ADD29RoundRect,0.150000X-0.512500X-0.150000X0.512500X-0.150000X0.512500X0.150000X-0.512500X0.150000X0*%
%TD*%
%TA.AperFunction,SMDPad,CuDef*%
%ADD30RoundRect,0.135000X-0.135000X-0.185000X0.135000X-0.185000X0.135000X0.185000X-0.135000X0.185000X0*%
%TD*%
%TA.AperFunction,SMDPad,CuDef*%
%ADD31RoundRect,0.375000X-0.625000X-0.375000X0.625000X-0.375000X0.625000X0.375000X-0.625000X0.375000X0*%
%TD*%
%TA.AperFunction,SMDPad,CuDef*%
%ADD32RoundRect,0.500000X-0.500000X-1.400000X0.500000X-1.400000X0.500000X1.400000X-0.500000X1.400000X0*%
%TD*%
%TA.AperFunction,ViaPad*%
%ADD33C,0.700000*%
%TD*%
%TA.AperFunction,Conductor*%
%ADD34C,0.300000*%
%TD*%
%TA.AperFunction,Conductor*%
%ADD35C,0.700000*%
%TD*%
%TA.AperFunction,Conductor*%
%ADD36C,0.200000*%
%TD*%
G04 APERTURE END LIST*
D10*
%TO.P,L1,1,1*%
%TO.N,/SW*%
X51900000Y-60550000D03*
%TO.P,L1,2,2*%
%TO.N,+5V*%
X51900000Y-54750000D03*
%TD*%
D11*
%TO.P,C2,1*%
%TO.N,GND*%
X59500000Y-30100000D03*
%TO.P,C2,2*%
%TO.N,+3.3V*%
X59500000Y-32000000D03*
%TD*%
D12*
%TO.P,TP2,1,1*%
%TO.N,+3.3V*%
X61400000Y-34950000D03*
%TD*%
D13*
%TO.P,PS2,1,OUT_1*%
%TO.N,+3.3V*%
X54000000Y-46900000D03*
%TO.P,PS2,2,OUT_2*%
X54000000Y-46100000D03*
%TO.P,PS2,3,ADJ/SENSE*%
X54000000Y-45300000D03*
%TO.P,PS2,4,GND_1*%
%TO.N,GND*%
X54000000Y-44500000D03*
%TO.P,PS2,5,PG*%
%TO.N,unconnected-(PS2-PG-Pad5)*%
X50200000Y-44500000D03*
%TO.P,PS2,6,EN*%
%TO.N,/EN*%
X50200000Y-45300000D03*
%TO.P,PS2,7,IN_1*%
%TO.N,/V_IN1*%
X50200000Y-46100000D03*
%TO.P,PS2,8,IN_2*%
X50200000Y-46900000D03*
D14*
%TO.P,PS2,9,GND_2*%
%TO.N,GND*%
X52100000Y-45700000D03*
%TD*%
D15*
%TO.P,R1,1*%
%TO.N,/V_IN1*%
X48470000Y-45670000D03*
%TO.P,R1,2*%
%TO.N,/EN*%
X48470000Y-44650000D03*
%TD*%
D12*
%TO.P,TP8,1,1*%
%TO.N,+5V*%
X61762500Y-57775000D03*
%TD*%
D16*
%TO.P,C6,2*%
%TO.N,GND*%
X49750000Y-64895000D03*
%TO.P,C6,1*%
%TO.N,/VIN*%
X49750000Y-65855000D03*
%TD*%
D12*
%TO.P,TP4,1,1*%
%TO.N,+3.3V*%
X61500000Y-45250000D03*
%TD*%
D16*
%TO.P,C8,2*%
%TO.N,/FB*%
X55550000Y-65645000D03*
%TO.P,C8,1*%
%TO.N,Net-(C8-Pad1)*%
X55550000Y-66605000D03*
%TD*%
D17*
%TO.P,D1,1,K*%
%TO.N,Net-(D1-K)*%
X59750000Y-39750000D03*
%TO.P,D1,2,A*%
%TO.N,+3.3V*%
X61325000Y-39750000D03*
%TD*%
D15*
%TO.P,R2,2*%
%TO.N,+5V*%
X58500000Y-62860000D03*
%TO.P,R2,1*%
%TO.N,Net-(C8-Pad1)*%
X58500000Y-63880000D03*
%TD*%
D18*
%TO.P,R3,2*%
%TO.N,/FB*%
X57050000Y-65300000D03*
%TO.P,R3,1*%
%TO.N,Net-(C8-Pad1)*%
X57050000Y-66950000D03*
%TD*%
D19*
%TO.P,R5,1*%
%TO.N,Net-(D1-K)*%
X58250000Y-39490000D03*
%TO.P,R5,2*%
%TO.N,GND*%
X58250000Y-40510000D03*
%TD*%
D11*
%TO.P,C1,1*%
%TO.N,GND*%
X48300000Y-33750000D03*
%TO.P,C1,2*%
%TO.N,/VI*%
X48300000Y-35650000D03*
%TD*%
D20*
%TO.P,C9,2*%
%TO.N,+5V*%
X56950000Y-57650000D03*
%TO.P,C9,1*%
%TO.N,GND*%
X56950000Y-59550000D03*
%TD*%
D21*
%TO.P,R6,1*%
%TO.N,Net-(D2-K)*%
X54010000Y-48600000D03*
%TO.P,R6,2*%
%TO.N,GND*%
X52990000Y-48600000D03*
%TD*%
D22*
%TO.P,C7,2*%
%TO.N,/SW*%
X52670000Y-62725000D03*
%TO.P,C7,1*%
%TO.N,/BOOT*%
X53630000Y-62725000D03*
%TD*%
D12*
%TO.P,TP9,1,1*%
%TO.N,GND*%
X44000000Y-54500000D03*
%TD*%
D23*
%TO.P,C5,2*%
%TO.N,GND*%
X48100000Y-64625000D03*
%TO.P,C5,1*%
%TO.N,/VIN*%
X48100000Y-66175000D03*
%TD*%
D24*
%TO.P,C4,1*%
%TO.N,GND*%
X56020000Y-45100000D03*
%TO.P,C4,2*%
%TO.N,+3.3V*%
X56020000Y-46650000D03*
%TD*%
D25*
%TO.P,J1,1,Pin_1*%
%TO.N,/VI*%
X43200000Y-35950000D03*
D26*
%TO.P,J1,2,Pin_2*%
%TO.N,GND*%
X43200000Y-33410000D03*
%TD*%
D25*
%TO.P,J2,1,Pin_1*%
%TO.N,/V_IN1*%
X43970000Y-45650000D03*
D26*
%TO.P,J2,2,Pin_2*%
%TO.N,GND*%
X43970000Y-48190000D03*
%TD*%
%TO.P,J3,2,Pin_2*%
%TO.N,GND*%
X44250000Y-64160000D03*
D25*
%TO.P,J3,1,Pin_1*%
%TO.N,/VIN*%
X44250000Y-66700000D03*
%TD*%
D27*
%TO.P,D3,2,A*%
%TO.N,+5V*%
X59612500Y-60475000D03*
%TO.P,D3,1,K*%
%TO.N,Net-(D3-K)*%
X61187500Y-60475000D03*
%TD*%
D28*
%TO.P,D2,1,K*%
%TO.N,Net-(D2-K)*%
X56020000Y-50287500D03*
%TO.P,D2,2,A*%
%TO.N,+3.3V*%
X56020000Y-48712500D03*
%TD*%
D29*
%TO.P,U2,6,BOOT*%
%TO.N,/BOOT*%
X53800000Y-64325000D03*
%TO.P,U2,5,EN*%
%TO.N,unconnected-(U2-EN-Pad5)*%
X53800000Y-65275000D03*
%TO.P,U2,4,FB*%
%TO.N,/FB*%
X53800000Y-66225000D03*
%TO.P,U2,3,VIN*%
%TO.N,/VIN*%
X51525000Y-66225000D03*
%TO.P,U2,2,SW*%
%TO.N,/SW*%
X51525000Y-65275000D03*
%TO.P,U2,1,GND*%
%TO.N,GND*%
X51525000Y-64325000D03*
%TD*%
D21*
%TO.P,R7,2*%
%TO.N,GND*%
X60240000Y-62025000D03*
%TO.P,R7,1*%
%TO.N,Net-(D3-K)*%
X61260000Y-62025000D03*
%TD*%
D30*
%TO.P,R4,2*%
%TO.N,GND*%
X56460000Y-63925000D03*
%TO.P,R4,1*%
%TO.N,/FB*%
X55440000Y-63925000D03*
%TD*%
D23*
%TO.P,C3,1*%
%TO.N,GND*%
X48470000Y-48950000D03*
%TO.P,C3,2*%
%TO.N,/V_IN1*%
X48470000Y-47400000D03*
%TD*%
D31*
%TO.P,U1,1,GND*%
%TO.N,GND*%
X50850000Y-32700000D03*
%TO.P,U1,2,VO*%
%TO.N,+3.3V*%
X50850000Y-35000000D03*
D32*
X57150000Y-35000000D03*
D31*
%TO.P,U1,3,VI*%
%TO.N,/VI*%
X50850000Y-37300000D03*
%TD*%
D33*
%TO.N,GND*%
X54750000Y-31600000D03*
X53800000Y-31600000D03*
X58050000Y-30900000D03*
X58050000Y-30050000D03*
X56550000Y-32200000D03*
X57500000Y-32200000D03*
X54750000Y-33450000D03*
X53750000Y-33450000D03*
X52650000Y-33450000D03*
X52700000Y-32500000D03*
X52700000Y-31600000D03*
X56800000Y-39750000D03*
X57250000Y-61100000D03*
X44600000Y-57000000D03*
X49322500Y-63975000D03*
X47350000Y-48900000D03*
X46850000Y-34200000D03*
X50400000Y-48900000D03*
X48492500Y-63435000D03*
X52800000Y-44500000D03*
X50732500Y-63365000D03*
X60802500Y-63225000D03*
X52750000Y-45700000D03*
X50042500Y-62845000D03*
X45050000Y-33250000D03*
X51150000Y-47700000D03*
X46872500Y-64795000D03*
X51365794Y-44490924D03*
X45500000Y-47400000D03*
X45500000Y-48150000D03*
X51400000Y-46700000D03*
X49600000Y-48900000D03*
X52000000Y-47700000D03*
X50152500Y-63955000D03*
X45500000Y-48950000D03*
X52150000Y-48550000D03*
X52800000Y-47700000D03*
X51381933Y-45700000D03*
X46052500Y-64455000D03*
X46052500Y-62785000D03*
X52760213Y-46700000D03*
X46900000Y-33250000D03*
X46052500Y-63605000D03*
X47622500Y-63435000D03*
X45000000Y-34100000D03*
X57012500Y-62695000D03*
X45050000Y-32450000D03*
%TD*%
D34*
%TO.N,GND*%
X57560000Y-40510000D02*
X56800000Y-39750000D01*
X58250000Y-40510000D02*
X57560000Y-40510000D01*
X56950000Y-60800000D02*
X57250000Y-61100000D01*
X56950000Y-59550000D02*
X56950000Y-60800000D01*
X44000000Y-56400000D02*
X44600000Y-57000000D01*
X44000000Y-54500000D02*
X44000000Y-56400000D01*
%TO.N,+5V*%
X58500000Y-61587500D02*
X59612500Y-60475000D01*
X58500000Y-62860000D02*
X58500000Y-61587500D01*
D35*
%TO.N,/SW*%
X51900000Y-61955000D02*
X52670000Y-62725000D01*
X51900000Y-60550000D02*
X51900000Y-61955000D01*
D36*
%TO.N,Net-(D1-K)*%
X59350000Y-39750000D02*
X59090000Y-39490000D01*
X59750000Y-39750000D02*
X59350000Y-39750000D01*
X59090000Y-39490000D02*
X58250000Y-39490000D01*
%TO.N,+3.3V*%
X61325000Y-39175000D02*
X61325000Y-39750000D01*
X57150000Y-35000000D02*
X61325000Y-39175000D01*
%TO.N,GND*%
X60240000Y-62025000D02*
X60240000Y-62662500D01*
X60240000Y-62662500D02*
X60802500Y-63225000D01*
X56460000Y-63247500D02*
X57012500Y-62695000D01*
X56460000Y-63925000D02*
X56460000Y-63247500D01*
D35*
X43970000Y-48190000D02*
X44460000Y-48190000D01*
%TO.N,+3.3V*%
X61350000Y-35000000D02*
X61400000Y-34950000D01*
D34*
%TO.N,Net-(C8-Pad1)*%
X55550000Y-66625000D02*
X55875000Y-66950000D01*
X56000000Y-66950000D02*
X57050000Y-66950000D01*
X55875000Y-66950000D02*
X56000000Y-66950000D01*
X57050000Y-66950000D02*
X58500000Y-65500000D01*
X57050000Y-66950000D02*
X57095000Y-66950000D01*
X58500000Y-65500000D02*
X58500000Y-63880000D01*
X55550000Y-66605000D02*
X55550000Y-66625000D01*
D36*
%TO.N,Net-(D2-K)*%
X56020000Y-50287500D02*
X54737500Y-50287500D01*
X54010000Y-49560000D02*
X54010000Y-48600000D01*
X54737500Y-50287500D02*
X54010000Y-49560000D01*
D34*
%TO.N,Net-(D3-K)*%
X61187500Y-60475000D02*
X61187500Y-61952500D01*
X61187500Y-61952500D02*
X61260000Y-62025000D01*
D36*
%TO.N,/EN*%
X50200000Y-45300000D02*
X49876000Y-44976000D01*
X49526000Y-44976000D02*
X49200000Y-44650000D01*
X49200000Y-44650000D02*
X48470000Y-44650000D01*
X49876000Y-44976000D02*
X49526000Y-44976000D01*
D34*
%TO.N,/SW*%
X51525000Y-65275000D02*
X52187499Y-65275000D01*
X52187499Y-65275000D02*
X52670000Y-64792499D01*
X52670000Y-64792499D02*
X52670000Y-62725000D01*
X52670000Y-62725000D02*
X52550000Y-62725000D01*
%TO.N,/BOOT*%
X53800000Y-62895000D02*
X53630000Y-62725000D01*
X53800000Y-64325000D02*
X53800000Y-62895000D01*
%TO.N,/FB*%
X56175000Y-65300000D02*
X57050000Y-65300000D01*
X55042499Y-65645000D02*
X55550000Y-65645000D01*
X54462499Y-66225000D02*
X55042499Y-65645000D01*
X55440000Y-64565000D02*
X55750000Y-64875000D01*
X55750000Y-64875000D02*
X56175000Y-65300000D01*
X55440000Y-63925000D02*
X55440000Y-64565000D01*
X55550000Y-65645000D02*
X55830000Y-65645000D01*
X55830000Y-65645000D02*
X56175000Y-65300000D01*
X53800000Y-66225000D02*
X54462499Y-66225000D01*
%TD*%
%TA.AperFunction,Conductor*%
%TO.N,/VI*%
G36*
X49072145Y-34919685D02*
G01*
X49084480Y-34928733D01*
X49305384Y-35112820D01*
X49344282Y-35170858D01*
X49350000Y-35208078D01*
X49350000Y-35650000D01*
X49350001Y-35650001D01*
X49849999Y-36200000D01*
X49850000Y-36200000D01*
X51798638Y-36200000D01*
X51865677Y-36219685D01*
X51886319Y-36236319D01*
X52163681Y-36513681D01*
X52197166Y-36575004D01*
X52200000Y-36601362D01*
X52200000Y-37848638D01*
X52180315Y-37915677D01*
X52163681Y-37936319D01*
X51786319Y-38313681D01*
X51724996Y-38347166D01*
X51698638Y-38350000D01*
X49945871Y-38350000D01*
X49878832Y-38330315D01*
X49865173Y-38320148D01*
X49593302Y-38087116D01*
X49555212Y-38028542D01*
X49550000Y-37992968D01*
X49550000Y-36850001D01*
X49550000Y-36850000D01*
X49250000Y-36500000D01*
X49249999Y-36500000D01*
X45650000Y-36500000D01*
X45649997Y-36500001D01*
X44684729Y-37320480D01*
X44620901Y-37348900D01*
X44604421Y-37350000D01*
X41937544Y-37350000D01*
X41870505Y-37330315D01*
X41868761Y-37329174D01*
X41505217Y-37086811D01*
X41460356Y-37033246D01*
X41450000Y-36983637D01*
X41450000Y-35273610D01*
X41469685Y-35206571D01*
X41514620Y-35164752D01*
X41964228Y-34919511D01*
X42032507Y-34904691D01*
X42039391Y-34905433D01*
X42040321Y-34905499D01*
X42040322Y-34905500D01*
X42040323Y-34905500D01*
X48848639Y-34905500D01*
X48850559Y-34905397D01*
X48881297Y-34903749D01*
X48882942Y-34903572D01*
X48907593Y-34900922D01*
X48907621Y-34900918D01*
X48907655Y-34900915D01*
X48908028Y-34900870D01*
X48908124Y-34900864D01*
X48908365Y-34900839D01*
X48908366Y-34900850D01*
X48922696Y-34900000D01*
X49005106Y-34900000D01*
X49072145Y-34919685D01*
G37*
%TD.AperFunction*%
%TD*%
%TA.AperFunction,Conductor*%
%TO.N,GND*%
G36*
X53207441Y-43969685D02*
G01*
X53237230Y-43996538D01*
X53400000Y-44200000D01*
X54350000Y-44200000D01*
X54350000Y-44669999D01*
X53674499Y-44669999D01*
X53674490Y-44669999D01*
X53674489Y-44670000D01*
X53609563Y-44676980D01*
X53609551Y-44676982D01*
X53558045Y-44688187D01*
X53519844Y-44699143D01*
X53519840Y-44699145D01*
X53461889Y-44733038D01*
X53399288Y-44750000D01*
X53349999Y-44750000D01*
X53250000Y-44849999D01*
X53250000Y-44977700D01*
X53239435Y-45027785D01*
X53227415Y-45055006D01*
X53227415Y-45055008D01*
X53224500Y-45080131D01*
X53224500Y-45519856D01*
X53224502Y-45519882D01*
X53227413Y-45544986D01*
X53227414Y-45544990D01*
X53227415Y-45544991D01*
X53234433Y-45560887D01*
X53236482Y-45570600D01*
X53239976Y-45576036D01*
X53244999Y-45610971D01*
X53244999Y-45789027D01*
X53234434Y-45839111D01*
X53227416Y-45855004D01*
X53227415Y-45855009D01*
X53224500Y-45880131D01*
X53224500Y-46319856D01*
X53224502Y-46319882D01*
X53227413Y-46344986D01*
X53227414Y-46344990D01*
X53227415Y-46344991D01*
X53234433Y-46360887D01*
X53236482Y-46370600D01*
X53239976Y-46376036D01*
X53244999Y-46410971D01*
X53244999Y-46589027D01*
X53234434Y-46639111D01*
X53227416Y-46655004D01*
X53227415Y-46655009D01*
X53224500Y-46680131D01*
X53224500Y-47119856D01*
X53224502Y-47119882D01*
X53227413Y-47144986D01*
X53227414Y-47144990D01*
X53227415Y-47144991D01*
X53239435Y-47172214D01*
X53250000Y-47222297D01*
X53250000Y-48798638D01*
X53230315Y-48865677D01*
X53213681Y-48886319D01*
X52586319Y-49513681D01*
X52524996Y-49547166D01*
X52498638Y-49550000D01*
X43366607Y-49550000D01*
X43333980Y-49545631D01*
X42822835Y-49406227D01*
X42781062Y-49385796D01*
X42249600Y-48987200D01*
X42207779Y-48931229D01*
X42200000Y-48888000D01*
X42200000Y-47514970D01*
X42219685Y-47447931D01*
X42253418Y-47413018D01*
X42344444Y-47350000D01*
X42811202Y-47026859D01*
X42877523Y-47004886D01*
X42890974Y-47005630D01*
X42891006Y-47005184D01*
X42895421Y-47005499D01*
X42895422Y-47005500D01*
X45670706Y-47005500D01*
X45737745Y-47025185D01*
X45739489Y-47026326D01*
X47650000Y-48300000D01*
X47961106Y-48300000D01*
X48014643Y-48312153D01*
X48038217Y-48323437D01*
X48038222Y-48323439D01*
X48105250Y-48343121D01*
X48105251Y-48343121D01*
X48105261Y-48343124D01*
X48191333Y-48355500D01*
X48191336Y-48355500D01*
X48810225Y-48355500D01*
X48810262Y-48355500D01*
X48817747Y-48355408D01*
X48823827Y-48355259D01*
X48916680Y-48338404D01*
X48982674Y-48315456D01*
X48983990Y-48314774D01*
X48985748Y-48313866D01*
X49042725Y-48300000D01*
X50049999Y-48300000D01*
X50050000Y-48300000D01*
X50939185Y-47350000D01*
X50939550Y-47245528D01*
X50950112Y-47195886D01*
X50972585Y-47144991D01*
X50975500Y-47119865D01*
X50975499Y-46680136D01*
X50975497Y-46680117D01*
X50972586Y-46655013D01*
X50972584Y-46655006D01*
X50965565Y-46639109D01*
X50963515Y-46629393D01*
X50960023Y-46623959D01*
X50955000Y-46589024D01*
X50955000Y-46410974D01*
X50965565Y-46360888D01*
X50972585Y-46344991D01*
X50975500Y-46319865D01*
X50975499Y-45880136D01*
X50972585Y-45855009D01*
X50964439Y-45836561D01*
X50955290Y-45815838D01*
X50953210Y-45805891D01*
X50949627Y-45800273D01*
X50944726Y-45765321D01*
X50945189Y-45632756D01*
X50955752Y-45583113D01*
X50972585Y-45544991D01*
X50975500Y-45519865D01*
X50975499Y-45080136D01*
X50975497Y-45080117D01*
X50972586Y-45055012D01*
X50972585Y-45055011D01*
X50972585Y-45055009D01*
X50958065Y-45022125D01*
X50955985Y-45012179D01*
X50952401Y-45006559D01*
X50947501Y-44971612D01*
X50948009Y-44826371D01*
X50958575Y-44776720D01*
X50972584Y-44744993D01*
X50972583Y-44744993D01*
X50972585Y-44744991D01*
X50975500Y-44719865D01*
X50975499Y-44280136D01*
X50975497Y-44280117D01*
X50972586Y-44255014D01*
X50972585Y-44255009D01*
X50960840Y-44228409D01*
X50958760Y-44218463D01*
X50955176Y-44212843D01*
X50950277Y-44177899D01*
X50950611Y-44082184D01*
X50970530Y-44015218D01*
X51005827Y-43979448D01*
X51018766Y-43970822D01*
X51085465Y-43950017D01*
X51087544Y-43950000D01*
X53140402Y-43950000D01*
X53207441Y-43969685D01*
G37*
%TD.AperFunction*%
%TD*%
%TA.AperFunction,Conductor*%
%TO.N,GND*%
G36*
X50225183Y-62394685D02*
G01*
X50233291Y-62400364D01*
X52170650Y-63876447D01*
X52212045Y-63932733D01*
X52219500Y-63975080D01*
X52219500Y-64550539D01*
X52199815Y-64617578D01*
X52147011Y-64663333D01*
X52094665Y-64673447D01*
X52094665Y-64674500D01*
X50958223Y-64674500D01*
X50955338Y-64674635D01*
X50955337Y-64674614D01*
X50947102Y-64675000D01*
X50649999Y-64675000D01*
X50095749Y-65186616D01*
X50033136Y-65217623D01*
X50011642Y-65219500D01*
X43332231Y-65219500D01*
X43272011Y-65203895D01*
X42963780Y-65032655D01*
X42914737Y-64982891D01*
X42900000Y-64924260D01*
X42900000Y-62628365D01*
X42901052Y-62624779D01*
X42900211Y-62621139D01*
X42910821Y-62591511D01*
X42919685Y-62561326D01*
X42922875Y-62557854D01*
X42923768Y-62555361D01*
X42948394Y-62530080D01*
X43116572Y-62400714D01*
X43181711Y-62375442D01*
X43192176Y-62375000D01*
X50158144Y-62375000D01*
X50225183Y-62394685D01*
G37*
%TD.AperFunction*%
%TD*%
%TA.AperFunction,Conductor*%
%TO.N,GND*%
G36*
X54776181Y-44213090D02*
G01*
X55250000Y-44450000D01*
X56342968Y-44450000D01*
X56410007Y-44469685D01*
X56437116Y-44493302D01*
X56670148Y-44765173D01*
X56698831Y-44828882D01*
X56700000Y-44845870D01*
X56700000Y-45362456D01*
X56680315Y-45429495D01*
X56679174Y-45431239D01*
X56540478Y-45639283D01*
X56486913Y-45684144D01*
X56437304Y-45694500D01*
X55545862Y-45694500D01*
X55478823Y-45674815D01*
X55458181Y-45658181D01*
X55258683Y-45458683D01*
X55243190Y-45439785D01*
X55003014Y-45079521D01*
X54988289Y-45049154D01*
X54965299Y-44978598D01*
X54965295Y-44978588D01*
X54931810Y-44917266D01*
X54879710Y-44847670D01*
X54879705Y-44847665D01*
X54879702Y-44847660D01*
X54879698Y-44847656D01*
X54879692Y-44847649D01*
X54827811Y-44795768D01*
X54827803Y-44795761D01*
X54796502Y-44768453D01*
X54796496Y-44768448D01*
X54769707Y-44748111D01*
X54760309Y-44741352D01*
X54760307Y-44741351D01*
X54756910Y-44738908D01*
X54755655Y-44738358D01*
X54751919Y-44735729D01*
X54691794Y-44710378D01*
X54690447Y-44709787D01*
X54690392Y-44709763D01*
X54654863Y-44694198D01*
X54654076Y-44693853D01*
X54654074Y-44693852D01*
X54654073Y-44693852D01*
X54654070Y-44693850D01*
X54650783Y-44693086D01*
X54648468Y-44692111D01*
X54618447Y-44685579D01*
X54617531Y-44685367D01*
X54617488Y-44685358D01*
X54603820Y-44682185D01*
X54603557Y-44682149D01*
X54567500Y-44673796D01*
X54561928Y-44675350D01*
X54540848Y-44673252D01*
X54533117Y-44671807D01*
X54523444Y-44669999D01*
X54350000Y-44669999D01*
X54350000Y-44200000D01*
X54720728Y-44200000D01*
X54776181Y-44213090D01*
G37*
%TD.AperFunction*%
%TD*%
%TA.AperFunction,Conductor*%
%TO.N,/V_IN1*%
G36*
X45610541Y-44219685D02*
G01*
X45637073Y-44242634D01*
X46600000Y-45350000D01*
X48661487Y-45350000D01*
X48728526Y-45369685D01*
X48731728Y-45371813D01*
X49500000Y-45900000D01*
X50525500Y-45900000D01*
X50592539Y-45919685D01*
X50638294Y-45972489D01*
X50649500Y-46024000D01*
X50649500Y-47076000D01*
X50629815Y-47143039D01*
X50577011Y-47188794D01*
X50525500Y-47200000D01*
X49500000Y-47200000D01*
X49200000Y-47399999D01*
X49200000Y-47736187D01*
X49180315Y-47803226D01*
X49148074Y-47837090D01*
X48882336Y-48026903D01*
X48816342Y-48049851D01*
X48810262Y-48050000D01*
X48191333Y-48050000D01*
X48124294Y-48030315D01*
X48116933Y-48025200D01*
X47750000Y-47750000D01*
X47099998Y-47399999D01*
X45800001Y-46700000D01*
X45800000Y-46700000D01*
X42895422Y-46700000D01*
X42828383Y-46680315D01*
X42815325Y-46670660D01*
X42243903Y-46187148D01*
X42205441Y-46128817D01*
X42200000Y-46092488D01*
X42200000Y-44714970D01*
X42219685Y-44647931D01*
X42253418Y-44613018D01*
X42818153Y-44222048D01*
X42884477Y-44200073D01*
X42888735Y-44200000D01*
X45543502Y-44200000D01*
X45610541Y-44219685D01*
G37*
%TD.AperFunction*%
%TD*%
%TA.AperFunction,Conductor*%
%TO.N,/VIN*%
G36*
X50278956Y-65541891D02*
G01*
X50850000Y-65875000D01*
X50947102Y-65875000D01*
X50955337Y-65875385D01*
X50955338Y-65875365D01*
X50958223Y-65875500D01*
X50958234Y-65875500D01*
X52091773Y-65875500D01*
X52093140Y-65875436D01*
X52093403Y-65875500D01*
X52094665Y-65875500D01*
X52094665Y-65875807D01*
X52125659Y-65883353D01*
X52158365Y-65890468D01*
X52160043Y-65891724D01*
X52161027Y-65891964D01*
X52186619Y-65911619D01*
X52263681Y-65988681D01*
X52297166Y-66050004D01*
X52300000Y-66076362D01*
X52300000Y-66423638D01*
X52280315Y-66490677D01*
X52263681Y-66511319D01*
X52186319Y-66588681D01*
X52124996Y-66622166D01*
X52098638Y-66625000D01*
X48850000Y-66625000D01*
X48683067Y-66750200D01*
X48617625Y-66774676D01*
X48608667Y-66775000D01*
X46100000Y-66775000D01*
X45650000Y-67125000D01*
X45650000Y-67723638D01*
X45630315Y-67790677D01*
X45613681Y-67811319D01*
X45436319Y-67988681D01*
X45374996Y-68022166D01*
X45348638Y-68025000D01*
X43245871Y-68025000D01*
X43220823Y-68017645D01*
X43194966Y-68014069D01*
X43183202Y-68006598D01*
X43178832Y-68005315D01*
X43165173Y-67995148D01*
X42993302Y-67847830D01*
X42955212Y-67789255D01*
X42950000Y-67753682D01*
X42950000Y-65753411D01*
X42969685Y-65686372D01*
X43006947Y-65649105D01*
X43169366Y-65544694D01*
X43236402Y-65525000D01*
X50216476Y-65525000D01*
X50278956Y-65541891D01*
G37*
%TD.AperFunction*%
%TD*%
%TA.AperFunction,Conductor*%
%TO.N,+3.3V*%
G36*
X60080157Y-31418848D02*
G01*
X60391720Y-31613575D01*
X60438136Y-31665799D01*
X60450000Y-31718727D01*
X60450000Y-32500000D01*
X61100000Y-33200000D01*
X62453693Y-33248346D01*
X62519987Y-33270411D01*
X62533874Y-33281616D01*
X63210607Y-33913233D01*
X63246186Y-33973366D01*
X63250000Y-34003884D01*
X63250000Y-35493731D01*
X63230315Y-35560770D01*
X63207655Y-35587050D01*
X62085063Y-36569319D01*
X62021648Y-36598651D01*
X62003408Y-36600000D01*
X58450000Y-36600000D01*
X58187200Y-36950400D01*
X58131229Y-36992221D01*
X58088000Y-37000000D01*
X55967171Y-37000000D01*
X55900132Y-36980315D01*
X55863307Y-36943737D01*
X55150000Y-35850000D01*
X49999543Y-35850000D01*
X49932504Y-35830315D01*
X49907790Y-35809411D01*
X49687747Y-35567362D01*
X49657217Y-35504516D01*
X49655500Y-35483951D01*
X49655500Y-35208077D01*
X49651957Y-35161690D01*
X49651956Y-35161683D01*
X49646238Y-35124463D01*
X49645489Y-35120499D01*
X49642361Y-35103933D01*
X49610063Y-35028729D01*
X49600000Y-34979796D01*
X49600000Y-34545870D01*
X49619685Y-34478831D01*
X49629848Y-34465177D01*
X49858170Y-34198802D01*
X49916745Y-34160712D01*
X49952318Y-34155500D01*
X54948639Y-34155500D01*
X54950559Y-34155397D01*
X54981297Y-34153749D01*
X54982942Y-34153572D01*
X55007593Y-34150922D01*
X55007621Y-34150918D01*
X55007655Y-34150915D01*
X55008028Y-34150870D01*
X55008124Y-34150864D01*
X55008365Y-34150839D01*
X55008366Y-34150850D01*
X55022696Y-34150000D01*
X55150000Y-34150000D01*
X55544190Y-33737891D01*
X55546003Y-33736038D01*
X56245722Y-33036318D01*
X56307045Y-33002834D01*
X56333403Y-33000000D01*
X57950000Y-33000000D01*
X58350000Y-32500000D01*
X58350000Y-31864628D01*
X58369685Y-31797589D01*
X58401271Y-31764196D01*
X58871666Y-31423566D01*
X58937508Y-31400191D01*
X58944392Y-31400000D01*
X60014437Y-31400000D01*
X60080157Y-31418848D01*
G37*
%TD.AperFunction*%
%TD*%
%TA.AperFunction,Conductor*%
%TO.N,GND*%
G36*
X60208961Y-29419685D02*
G01*
X60237180Y-29444616D01*
X60421259Y-29665511D01*
X60449055Y-29729613D01*
X60450000Y-29744893D01*
X60450000Y-30398638D01*
X60430315Y-30465677D01*
X60413681Y-30486319D01*
X60236319Y-30663681D01*
X60174996Y-30697166D01*
X60148638Y-30700000D01*
X59350000Y-30700000D01*
X57900000Y-31749999D01*
X57900000Y-32476000D01*
X57880315Y-32543039D01*
X57827511Y-32588794D01*
X57776000Y-32600000D01*
X56249999Y-32600000D01*
X55036319Y-33813681D01*
X54974996Y-33847166D01*
X54948638Y-33850000D01*
X49649999Y-33850000D01*
X48936319Y-34563681D01*
X48874996Y-34597166D01*
X48848638Y-34600000D01*
X42040322Y-34600000D01*
X41973283Y-34580315D01*
X41967389Y-34576283D01*
X41501067Y-34237139D01*
X41458427Y-34181789D01*
X41450000Y-34136856D01*
X41450000Y-32459597D01*
X41469685Y-32392558D01*
X41496536Y-32362771D01*
X41916035Y-32027172D01*
X41980681Y-32000664D01*
X41993497Y-32000000D01*
X46159148Y-32000000D01*
X46226187Y-32019685D01*
X46232852Y-32024282D01*
X47350000Y-32850000D01*
X49049999Y-32850000D01*
X49050000Y-32850000D01*
X49550000Y-32500000D01*
X49550000Y-31941333D01*
X49569685Y-31874294D01*
X49574800Y-31866933D01*
X50112800Y-31149600D01*
X50168771Y-31107779D01*
X50212000Y-31100000D01*
X57500000Y-31100000D01*
X57500000Y-29892587D01*
X57519685Y-29825548D01*
X57572489Y-29779793D01*
X57588761Y-29773700D01*
X58832757Y-29405108D01*
X58867984Y-29400000D01*
X60141922Y-29400000D01*
X60208961Y-29419685D01*
G37*
%TD.AperFunction*%
%TD*%
%TA.AperFunction,Conductor*%
%TO.N,+5V*%
G36*
X53622145Y-53219685D02*
G01*
X53634480Y-53228733D01*
X53855384Y-53412820D01*
X53894282Y-53470858D01*
X53900000Y-53508078D01*
X53900000Y-56750000D01*
X60099999Y-56750000D01*
X60100000Y-56750000D01*
X61019665Y-56169159D01*
X61085880Y-56150000D01*
X62455106Y-56150000D01*
X62522145Y-56169685D01*
X62534489Y-56178741D01*
X63355383Y-56862819D01*
X63394282Y-56920858D01*
X63400000Y-56958078D01*
X63400000Y-58685438D01*
X63380315Y-58752477D01*
X63347109Y-58787023D01*
X62432021Y-59427585D01*
X62365812Y-59449903D01*
X62360912Y-59450000D01*
X60750000Y-59450000D01*
X60350000Y-59900000D01*
X60350000Y-60948638D01*
X60330315Y-61015677D01*
X60313681Y-61036319D01*
X60086319Y-61263681D01*
X60024996Y-61297166D01*
X59998638Y-61300000D01*
X59345871Y-61300000D01*
X59278832Y-61280315D01*
X59265173Y-61270148D01*
X58993302Y-61037116D01*
X58955212Y-60978542D01*
X58950000Y-60942968D01*
X58950000Y-58900000D01*
X58500000Y-58450000D01*
X50498234Y-58450000D01*
X50431195Y-58430315D01*
X50414444Y-58417407D01*
X49890210Y-57936859D01*
X49854093Y-57877048D01*
X49850000Y-57845452D01*
X49850000Y-53544893D01*
X49869685Y-53477854D01*
X49878736Y-53465516D01*
X50062819Y-53244616D01*
X50120858Y-53205718D01*
X50158078Y-53200000D01*
X53555106Y-53200000D01*
X53622145Y-53219685D01*
G37*
%TD.AperFunction*%
%TD*%
%TA.AperFunction,Conductor*%
%TO.N,+3.3V*%
G36*
X62418346Y-43669685D02*
G01*
X62435683Y-43683134D01*
X63060376Y-44263206D01*
X63096108Y-44323247D01*
X63100000Y-44354072D01*
X63100000Y-45942658D01*
X63080315Y-46009697D01*
X63056310Y-46037135D01*
X62189483Y-46773939D01*
X62135307Y-46819989D01*
X62071479Y-46848408D01*
X62053666Y-46849501D01*
X57450000Y-46799999D01*
X57449999Y-46800000D01*
X56800000Y-47549997D01*
X56800000Y-48954129D01*
X56780315Y-49021168D01*
X56770148Y-49034827D01*
X56537116Y-49306698D01*
X56478542Y-49344788D01*
X56442968Y-49350000D01*
X55645871Y-49350000D01*
X55578832Y-49330315D01*
X55565173Y-49320148D01*
X55293302Y-49087116D01*
X55255212Y-49028542D01*
X55250000Y-48992968D01*
X55250000Y-47550001D01*
X55250000Y-47550000D01*
X55000000Y-47250000D01*
X54999999Y-47250000D01*
X53712543Y-47250000D01*
X53694459Y-47244689D01*
X53675613Y-47244373D01*
X53647186Y-47230809D01*
X53645504Y-47230315D01*
X53643760Y-47229174D01*
X53605716Y-47203811D01*
X53560855Y-47150245D01*
X53550499Y-47100641D01*
X53550499Y-45099498D01*
X53570184Y-45032460D01*
X53622988Y-44986705D01*
X53674499Y-44975499D01*
X54523444Y-44975499D01*
X54523444Y-44977181D01*
X54550177Y-44983374D01*
X54583526Y-44990629D01*
X54584437Y-44991311D01*
X54584984Y-44991438D01*
X54611780Y-45011780D01*
X54663681Y-45063681D01*
X54697166Y-45125004D01*
X54700000Y-45151362D01*
X54700000Y-46000000D01*
X59199999Y-46000000D01*
X59200000Y-46000000D01*
X59850000Y-45450000D01*
X59850000Y-44599299D01*
X59869685Y-44532260D01*
X59883846Y-44514162D01*
X60663300Y-43688859D01*
X60723642Y-43653636D01*
X60753450Y-43650000D01*
X62351307Y-43650000D01*
X62418346Y-43669685D01*
G37*
%TD.AperFunction*%
%TD*%
M02*
