%TF.GenerationSoftware,KiCad,Pcbnew,9.0.0*%
%TF.CreationDate,2025-10-29T11:22:27-04:00*%
%TF.ProjectId,voltage-regulator,766f6c74-6167-4652-9d72-6567756c6174,rev?*%
%TF.SameCoordinates,Original*%
%TF.FileFunction,Soldermask,Top*%
%TF.FilePolarity,Negative*%
%FSLAX46Y46*%
G04 Gerber Fmt 4.6, Leading zero omitted, Abs format (unit mm)*
G04 Created by KiCad (PCBNEW 9.0.0) date 2025-10-29 11:22:27*
%MOMM*%
%LPD*%
G01*
G04 APERTURE LIST*
G04 Aperture macros list*
%AMRoundRect*
0 Rectangle with rounded corners*
0 $1 Rounding radius*
0 $2 $3 $4 $5 $6 $7 $8 $9 X,Y pos of 4 corners*
0 Add a 4 corners polygon primitive as box body*
4,1,4,$2,$3,$4,$5,$6,$7,$8,$9,$2,$3,0*
0 Add four circle primitives for the rounded corners*
1,1,$1+$1,$2,$3*
1,1,$1+$1,$4,$5*
1,1,$1+$1,$6,$7*
1,1,$1+$1,$8,$9*
0 Add four rect primitives between the rounded corners*
20,1,$1+$1,$2,$3,$4,$5,0*
20,1,$1+$1,$4,$5,$6,$7,0*
20,1,$1+$1,$6,$7,$8,$9,0*
20,1,$1+$1,$8,$9,$2,$3,0*%
G04 Aperture macros list end*
%ADD10R,3.400000X2.400000*%
%ADD11RoundRect,0.250000X-0.475000X0.250000X-0.475000X-0.250000X0.475000X-0.250000X0.475000X0.250000X0*%
%ADD12C,2.000000*%
%ADD13R,0.950000X0.350000*%
%ADD14R,2.300000X3.230000*%
%ADD15RoundRect,0.135000X0.185000X-0.135000X0.185000X0.135000X-0.185000X0.135000X-0.185000X-0.135000X0*%
%ADD16C,2.200000*%
%ADD17RoundRect,0.140000X0.170000X-0.140000X0.170000X0.140000X-0.170000X0.140000X-0.170000X-0.140000X0*%
%ADD18RoundRect,0.218750X-0.218750X-0.256250X0.218750X-0.256250X0.218750X0.256250X-0.218750X0.256250X0*%
%ADD19RoundRect,0.200000X0.275000X-0.200000X0.275000X0.200000X-0.275000X0.200000X-0.275000X-0.200000X0*%
%ADD20RoundRect,0.135000X-0.185000X0.135000X-0.185000X-0.135000X0.185000X-0.135000X0.185000X0.135000X0*%
%ADD21RoundRect,0.250000X0.475000X-0.250000X0.475000X0.250000X-0.475000X0.250000X-0.475000X-0.250000X0*%
%ADD22RoundRect,0.135000X0.135000X0.185000X-0.135000X0.185000X-0.135000X-0.185000X0.135000X-0.185000X0*%
%ADD23RoundRect,0.140000X0.140000X0.170000X-0.140000X0.170000X-0.140000X-0.170000X0.140000X-0.170000X0*%
%ADD24RoundRect,0.225000X0.250000X-0.225000X0.250000X0.225000X-0.250000X0.225000X-0.250000X-0.225000X0*%
%ADD25RoundRect,0.225000X-0.250000X0.225000X-0.250000X-0.225000X0.250000X-0.225000X0.250000X0.225000X0*%
%ADD26R,1.700000X1.700000*%
%ADD27O,1.700000X1.700000*%
%ADD28RoundRect,0.218750X0.218750X0.256250X-0.218750X0.256250X-0.218750X-0.256250X0.218750X-0.256250X0*%
%ADD29RoundRect,0.218750X0.256250X-0.218750X0.256250X0.218750X-0.256250X0.218750X-0.256250X-0.218750X0*%
%ADD30RoundRect,0.150000X-0.512500X-0.150000X0.512500X-0.150000X0.512500X0.150000X-0.512500X0.150000X0*%
%ADD31RoundRect,0.135000X-0.135000X-0.185000X0.135000X-0.185000X0.135000X0.185000X-0.135000X0.185000X0*%
%ADD32RoundRect,0.375000X-0.625000X-0.375000X0.625000X-0.375000X0.625000X0.375000X-0.625000X0.375000X0*%
%ADD33RoundRect,0.500000X-0.500000X-1.400000X0.500000X-1.400000X0.500000X1.400000X-0.500000X1.400000X0*%
G04 APERTURE END LIST*
D10*
%TO.C,L1*%
X51900000Y-60550000D03*
X51900000Y-54750000D03*
%TD*%
D11*
%TO.C,C2*%
X59500000Y-30100000D03*
X59500000Y-32000000D03*
%TD*%
D12*
%TO.C,TP2*%
X61400000Y-34950000D03*
%TD*%
D13*
%TO.C,PS2*%
X54000000Y-46900000D03*
X54000000Y-46100000D03*
X54000000Y-45300000D03*
X54000000Y-44500000D03*
X50200000Y-44500000D03*
X50200000Y-45300000D03*
X50200000Y-46100000D03*
X50200000Y-46900000D03*
D14*
X52100000Y-45700000D03*
%TD*%
D15*
%TO.C,R1*%
X48470000Y-45670000D03*
X48470000Y-44650000D03*
%TD*%
D16*
%TO.C,H1*%
X62000000Y-26000000D03*
%TD*%
D12*
%TO.C,TP8*%
X61762500Y-57775000D03*
%TD*%
D17*
%TO.C,C6*%
X49750000Y-64895000D03*
X49750000Y-65855000D03*
%TD*%
D12*
%TO.C,TP4*%
X61500000Y-45250000D03*
%TD*%
D16*
%TO.C,H3*%
X42000000Y-26000000D03*
%TD*%
D17*
%TO.C,C8*%
X55550000Y-65645000D03*
X55550000Y-66605000D03*
%TD*%
D18*
%TO.C,D1*%
X59750000Y-39750000D03*
X61325000Y-39750000D03*
%TD*%
D15*
%TO.C,R2*%
X58500000Y-62860000D03*
X58500000Y-63880000D03*
%TD*%
D19*
%TO.C,R3*%
X57050000Y-65300000D03*
X57050000Y-66950000D03*
%TD*%
D20*
%TO.C,R5*%
X58250000Y-39490000D03*
X58250000Y-40510000D03*
%TD*%
D16*
%TO.C,H4*%
X62250000Y-73250000D03*
%TD*%
D11*
%TO.C,C1*%
X48300000Y-33750000D03*
X48300000Y-35650000D03*
%TD*%
D21*
%TO.C,C9*%
X56950000Y-57650000D03*
X56950000Y-59550000D03*
%TD*%
D22*
%TO.C,R6*%
X54010000Y-48600000D03*
X52990000Y-48600000D03*
%TD*%
D23*
%TO.C,C7*%
X52670000Y-62725000D03*
X53630000Y-62725000D03*
%TD*%
D16*
%TO.C,H2*%
X41750000Y-73250000D03*
%TD*%
D12*
%TO.C,TP9*%
X44000000Y-54500000D03*
%TD*%
D24*
%TO.C,C5*%
X48100000Y-64625000D03*
X48100000Y-66175000D03*
%TD*%
D25*
%TO.C,C4*%
X56020000Y-45100000D03*
X56020000Y-46650000D03*
%TD*%
D26*
%TO.C,J1*%
X43200000Y-35950000D03*
D27*
X43200000Y-33410000D03*
%TD*%
D26*
%TO.C,J2*%
X43970000Y-45650000D03*
D27*
X43970000Y-48190000D03*
%TD*%
%TO.C,J3*%
X44250000Y-64160000D03*
D26*
X44250000Y-66700000D03*
%TD*%
D28*
%TO.C,D3*%
X59612500Y-60475000D03*
X61187500Y-60475000D03*
%TD*%
D29*
%TO.C,D2*%
X56020000Y-50287500D03*
X56020000Y-48712500D03*
%TD*%
D30*
%TO.C,U2*%
X53800000Y-64325000D03*
X53800000Y-65275000D03*
X53800000Y-66225000D03*
X51525000Y-66225000D03*
X51525000Y-65275000D03*
X51525000Y-64325000D03*
%TD*%
D22*
%TO.C,R7*%
X60240000Y-62025000D03*
X61260000Y-62025000D03*
%TD*%
D31*
%TO.C,R4*%
X56460000Y-63925000D03*
X55440000Y-63925000D03*
%TD*%
D24*
%TO.C,C3*%
X48470000Y-48950000D03*
X48470000Y-47400000D03*
%TD*%
D32*
%TO.C,U1*%
X50850000Y-32700000D03*
X50850000Y-35000000D03*
D33*
X57150000Y-35000000D03*
D32*
X50850000Y-37300000D03*
%TD*%
M02*
