%TF.GenerationSoftware,KiCad,Pcbnew,9.0.0*%
%TF.CreationDate,2025-10-29T11:22:27-04:00*%
%TF.ProjectId,voltage-regulator,766f6c74-6167-4652-9d72-6567756c6174,rev?*%
%TF.SameCoordinates,Original*%
%TF.FileFunction,Legend,Top*%
%TF.FilePolarity,Positive*%
%FSLAX46Y46*%
G04 Gerber Fmt 4.6, Leading zero omitted, Abs format (unit mm)*
G04 Created by KiCad (PCBNEW 9.0.0) date 2025-10-29 11:22:27*
%MOMM*%
%LPD*%
G01*
G04 APERTURE LIST*
%ADD10C,0.153000*%
%ADD11C,0.254000*%
%ADD12C,0.200000*%
%ADD13C,0.120000*%
%ADD14C,0.250000*%
G04 APERTURE END LIST*
D10*
X41882163Y-67462438D02*
X41882163Y-68033866D01*
X41882163Y-67748152D02*
X40882163Y-67748152D01*
X40882163Y-67748152D02*
X41025020Y-67843390D01*
X41025020Y-67843390D02*
X41120258Y-67938628D01*
X41120258Y-67938628D02*
X41167877Y-68033866D01*
X40977401Y-67081485D02*
X40929782Y-67033866D01*
X40929782Y-67033866D02*
X40882163Y-66938628D01*
X40882163Y-66938628D02*
X40882163Y-66700533D01*
X40882163Y-66700533D02*
X40929782Y-66605295D01*
X40929782Y-66605295D02*
X40977401Y-66557676D01*
X40977401Y-66557676D02*
X41072639Y-66510057D01*
X41072639Y-66510057D02*
X41167877Y-66510057D01*
X41167877Y-66510057D02*
X41310734Y-66557676D01*
X41310734Y-66557676D02*
X41882163Y-67129104D01*
X41882163Y-67129104D02*
X41882163Y-66510057D01*
X40882163Y-66224342D02*
X41882163Y-65891009D01*
X41882163Y-65891009D02*
X40882163Y-65557676D01*
X41882163Y-64462437D02*
X40882163Y-64462437D01*
X41215496Y-63986247D02*
X41882163Y-63986247D01*
X41310734Y-63986247D02*
X41263115Y-63938628D01*
X41263115Y-63938628D02*
X41215496Y-63843390D01*
X41215496Y-63843390D02*
X41215496Y-63700533D01*
X41215496Y-63700533D02*
X41263115Y-63605295D01*
X41263115Y-63605295D02*
X41358353Y-63557676D01*
X41358353Y-63557676D02*
X41882163Y-63557676D01*
X40619663Y-48185057D02*
X40619663Y-48661247D01*
X40619663Y-48661247D02*
X41095853Y-48708866D01*
X41095853Y-48708866D02*
X41048234Y-48661247D01*
X41048234Y-48661247D02*
X41000615Y-48566009D01*
X41000615Y-48566009D02*
X41000615Y-48327914D01*
X41000615Y-48327914D02*
X41048234Y-48232676D01*
X41048234Y-48232676D02*
X41095853Y-48185057D01*
X41095853Y-48185057D02*
X41191091Y-48137438D01*
X41191091Y-48137438D02*
X41429186Y-48137438D01*
X41429186Y-48137438D02*
X41524424Y-48185057D01*
X41524424Y-48185057D02*
X41572044Y-48232676D01*
X41572044Y-48232676D02*
X41619663Y-48327914D01*
X41619663Y-48327914D02*
X41619663Y-48566009D01*
X41619663Y-48566009D02*
X41572044Y-48661247D01*
X41572044Y-48661247D02*
X41524424Y-48708866D01*
X40619663Y-47851723D02*
X41619663Y-47518390D01*
X41619663Y-47518390D02*
X40619663Y-47185057D01*
X41619663Y-46089818D02*
X40619663Y-46089818D01*
X40952996Y-45613628D02*
X41619663Y-45613628D01*
X41048234Y-45613628D02*
X41000615Y-45566009D01*
X41000615Y-45566009D02*
X40952996Y-45470771D01*
X40952996Y-45470771D02*
X40952996Y-45327914D01*
X40952996Y-45327914D02*
X41000615Y-45232676D01*
X41000615Y-45232676D02*
X41095853Y-45185057D01*
X41095853Y-45185057D02*
X41619663Y-45185057D01*
X40714901Y-43994580D02*
X40667282Y-43946961D01*
X40667282Y-43946961D02*
X40619663Y-43851723D01*
X40619663Y-43851723D02*
X40619663Y-43613628D01*
X40619663Y-43613628D02*
X40667282Y-43518390D01*
X40667282Y-43518390D02*
X40714901Y-43470771D01*
X40714901Y-43470771D02*
X40810139Y-43423152D01*
X40810139Y-43423152D02*
X40905377Y-43423152D01*
X40905377Y-43423152D02*
X41048234Y-43470771D01*
X41048234Y-43470771D02*
X41619663Y-44042199D01*
X41619663Y-44042199D02*
X41619663Y-43423152D01*
X41333948Y-43042199D02*
X41333948Y-42566009D01*
X41619663Y-43137437D02*
X40619663Y-42804104D01*
X40619663Y-42804104D02*
X41619663Y-42470771D01*
X41755418Y-40964901D02*
X41660180Y-40917282D01*
X41660180Y-40917282D02*
X41564942Y-40822044D01*
X41564942Y-40822044D02*
X41422085Y-40679186D01*
X41422085Y-40679186D02*
X41326847Y-40631567D01*
X41326847Y-40631567D02*
X41231609Y-40631567D01*
X41279228Y-40869663D02*
X41183990Y-40822044D01*
X41183990Y-40822044D02*
X41088752Y-40726805D01*
X41088752Y-40726805D02*
X41041133Y-40536329D01*
X41041133Y-40536329D02*
X41041133Y-40202996D01*
X41041133Y-40202996D02*
X41088752Y-40012520D01*
X41088752Y-40012520D02*
X41183990Y-39917282D01*
X41183990Y-39917282D02*
X41279228Y-39869663D01*
X41279228Y-39869663D02*
X41469704Y-39869663D01*
X41469704Y-39869663D02*
X41564942Y-39917282D01*
X41564942Y-39917282D02*
X41660180Y-40012520D01*
X41660180Y-40012520D02*
X41707799Y-40202996D01*
X41707799Y-40202996D02*
X41707799Y-40536329D01*
X41707799Y-40536329D02*
X41660180Y-40726805D01*
X41660180Y-40726805D02*
X41564942Y-40822044D01*
X41564942Y-40822044D02*
X41469704Y-40869663D01*
X41469704Y-40869663D02*
X41279228Y-40869663D01*
X42564942Y-40202996D02*
X42564942Y-40869663D01*
X42136371Y-40202996D02*
X42136371Y-40726805D01*
X42136371Y-40726805D02*
X42183990Y-40822044D01*
X42183990Y-40822044D02*
X42279228Y-40869663D01*
X42279228Y-40869663D02*
X42422085Y-40869663D01*
X42422085Y-40869663D02*
X42517323Y-40822044D01*
X42517323Y-40822044D02*
X42564942Y-40774424D01*
X43469704Y-40869663D02*
X43469704Y-40345853D01*
X43469704Y-40345853D02*
X43422085Y-40250615D01*
X43422085Y-40250615D02*
X43326847Y-40202996D01*
X43326847Y-40202996D02*
X43136371Y-40202996D01*
X43136371Y-40202996D02*
X43041133Y-40250615D01*
X43469704Y-40822044D02*
X43374466Y-40869663D01*
X43374466Y-40869663D02*
X43136371Y-40869663D01*
X43136371Y-40869663D02*
X43041133Y-40822044D01*
X43041133Y-40822044D02*
X42993514Y-40726805D01*
X42993514Y-40726805D02*
X42993514Y-40631567D01*
X42993514Y-40631567D02*
X43041133Y-40536329D01*
X43041133Y-40536329D02*
X43136371Y-40488710D01*
X43136371Y-40488710D02*
X43374466Y-40488710D01*
X43374466Y-40488710D02*
X43469704Y-40441091D01*
X43945895Y-40202996D02*
X43945895Y-40869663D01*
X43945895Y-40298234D02*
X43993514Y-40250615D01*
X43993514Y-40250615D02*
X44088752Y-40202996D01*
X44088752Y-40202996D02*
X44231609Y-40202996D01*
X44231609Y-40202996D02*
X44326847Y-40250615D01*
X44326847Y-40250615D02*
X44374466Y-40345853D01*
X44374466Y-40345853D02*
X44374466Y-40869663D01*
X45279228Y-40202996D02*
X45279228Y-41012520D01*
X45279228Y-41012520D02*
X45231609Y-41107758D01*
X45231609Y-41107758D02*
X45183990Y-41155377D01*
X45183990Y-41155377D02*
X45088752Y-41202996D01*
X45088752Y-41202996D02*
X44945895Y-41202996D01*
X44945895Y-41202996D02*
X44850657Y-41155377D01*
X45279228Y-40822044D02*
X45183990Y-40869663D01*
X45183990Y-40869663D02*
X44993514Y-40869663D01*
X44993514Y-40869663D02*
X44898276Y-40822044D01*
X44898276Y-40822044D02*
X44850657Y-40774424D01*
X44850657Y-40774424D02*
X44803038Y-40679186D01*
X44803038Y-40679186D02*
X44803038Y-40393472D01*
X44803038Y-40393472D02*
X44850657Y-40298234D01*
X44850657Y-40298234D02*
X44898276Y-40250615D01*
X44898276Y-40250615D02*
X44993514Y-40202996D01*
X44993514Y-40202996D02*
X45183990Y-40202996D01*
X45183990Y-40202996D02*
X45279228Y-40250615D01*
X46517324Y-40869663D02*
X46517324Y-39869663D01*
X46517324Y-39869663D02*
X46755419Y-39869663D01*
X46755419Y-39869663D02*
X46898276Y-39917282D01*
X46898276Y-39917282D02*
X46993514Y-40012520D01*
X46993514Y-40012520D02*
X47041133Y-40107758D01*
X47041133Y-40107758D02*
X47088752Y-40298234D01*
X47088752Y-40298234D02*
X47088752Y-40441091D01*
X47088752Y-40441091D02*
X47041133Y-40631567D01*
X47041133Y-40631567D02*
X46993514Y-40726805D01*
X46993514Y-40726805D02*
X46898276Y-40822044D01*
X46898276Y-40822044D02*
X46755419Y-40869663D01*
X46755419Y-40869663D02*
X46517324Y-40869663D01*
X48183991Y-40202996D02*
X48374467Y-40869663D01*
X48374467Y-40869663D02*
X48564943Y-40393472D01*
X48564943Y-40393472D02*
X48755419Y-40869663D01*
X48755419Y-40869663D02*
X48945895Y-40202996D01*
X49755419Y-40869663D02*
X49755419Y-40345853D01*
X49755419Y-40345853D02*
X49707800Y-40250615D01*
X49707800Y-40250615D02*
X49612562Y-40202996D01*
X49612562Y-40202996D02*
X49422086Y-40202996D01*
X49422086Y-40202996D02*
X49326848Y-40250615D01*
X49755419Y-40822044D02*
X49660181Y-40869663D01*
X49660181Y-40869663D02*
X49422086Y-40869663D01*
X49422086Y-40869663D02*
X49326848Y-40822044D01*
X49326848Y-40822044D02*
X49279229Y-40726805D01*
X49279229Y-40726805D02*
X49279229Y-40631567D01*
X49279229Y-40631567D02*
X49326848Y-40536329D01*
X49326848Y-40536329D02*
X49422086Y-40488710D01*
X49422086Y-40488710D02*
X49660181Y-40488710D01*
X49660181Y-40488710D02*
X49755419Y-40441091D01*
X50183991Y-40822044D02*
X50279229Y-40869663D01*
X50279229Y-40869663D02*
X50469705Y-40869663D01*
X50469705Y-40869663D02*
X50564943Y-40822044D01*
X50564943Y-40822044D02*
X50612562Y-40726805D01*
X50612562Y-40726805D02*
X50612562Y-40679186D01*
X50612562Y-40679186D02*
X50564943Y-40583948D01*
X50564943Y-40583948D02*
X50469705Y-40536329D01*
X50469705Y-40536329D02*
X50326848Y-40536329D01*
X50326848Y-40536329D02*
X50231610Y-40488710D01*
X50231610Y-40488710D02*
X50183991Y-40393472D01*
X50183991Y-40393472D02*
X50183991Y-40345853D01*
X50183991Y-40345853D02*
X50231610Y-40250615D01*
X50231610Y-40250615D02*
X50326848Y-40202996D01*
X50326848Y-40202996D02*
X50469705Y-40202996D01*
X50469705Y-40202996D02*
X50564943Y-40250615D01*
X51803039Y-40869663D02*
X51803039Y-39869663D01*
X52231610Y-40869663D02*
X52231610Y-40345853D01*
X52231610Y-40345853D02*
X52183991Y-40250615D01*
X52183991Y-40250615D02*
X52088753Y-40202996D01*
X52088753Y-40202996D02*
X51945896Y-40202996D01*
X51945896Y-40202996D02*
X51850658Y-40250615D01*
X51850658Y-40250615D02*
X51803039Y-40298234D01*
X53088753Y-40822044D02*
X52993515Y-40869663D01*
X52993515Y-40869663D02*
X52803039Y-40869663D01*
X52803039Y-40869663D02*
X52707801Y-40822044D01*
X52707801Y-40822044D02*
X52660182Y-40726805D01*
X52660182Y-40726805D02*
X52660182Y-40345853D01*
X52660182Y-40345853D02*
X52707801Y-40250615D01*
X52707801Y-40250615D02*
X52803039Y-40202996D01*
X52803039Y-40202996D02*
X52993515Y-40202996D01*
X52993515Y-40202996D02*
X53088753Y-40250615D01*
X53088753Y-40250615D02*
X53136372Y-40345853D01*
X53136372Y-40345853D02*
X53136372Y-40441091D01*
X53136372Y-40441091D02*
X52660182Y-40536329D01*
X53564944Y-40869663D02*
X53564944Y-40202996D01*
X53564944Y-40393472D02*
X53612563Y-40298234D01*
X53612563Y-40298234D02*
X53660182Y-40250615D01*
X53660182Y-40250615D02*
X53755420Y-40202996D01*
X53755420Y-40202996D02*
X53850658Y-40202996D01*
X54564944Y-40822044D02*
X54469706Y-40869663D01*
X54469706Y-40869663D02*
X54279230Y-40869663D01*
X54279230Y-40869663D02*
X54183992Y-40822044D01*
X54183992Y-40822044D02*
X54136373Y-40726805D01*
X54136373Y-40726805D02*
X54136373Y-40345853D01*
X54136373Y-40345853D02*
X54183992Y-40250615D01*
X54183992Y-40250615D02*
X54279230Y-40202996D01*
X54279230Y-40202996D02*
X54469706Y-40202996D01*
X54469706Y-40202996D02*
X54564944Y-40250615D01*
X54564944Y-40250615D02*
X54612563Y-40345853D01*
X54612563Y-40345853D02*
X54612563Y-40441091D01*
X54612563Y-40441091D02*
X54136373Y-40536329D01*
X55803040Y-40774424D02*
X55850659Y-40822044D01*
X55850659Y-40822044D02*
X55803040Y-40869663D01*
X55803040Y-40869663D02*
X55755421Y-40822044D01*
X55755421Y-40822044D02*
X55803040Y-40774424D01*
X55803040Y-40774424D02*
X55803040Y-40869663D01*
X55803040Y-40250615D02*
X55850659Y-40298234D01*
X55850659Y-40298234D02*
X55803040Y-40345853D01*
X55803040Y-40345853D02*
X55755421Y-40298234D01*
X55755421Y-40298234D02*
X55803040Y-40250615D01*
X55803040Y-40250615D02*
X55803040Y-40345853D01*
X56183992Y-41250615D02*
X56231611Y-41202996D01*
X56231611Y-41202996D02*
X56326849Y-41060139D01*
X56326849Y-41060139D02*
X56374468Y-40964901D01*
X56374468Y-40964901D02*
X56422087Y-40822044D01*
X56422087Y-40822044D02*
X56469706Y-40583948D01*
X56469706Y-40583948D02*
X56469706Y-40393472D01*
X56469706Y-40393472D02*
X56422087Y-40155377D01*
X56422087Y-40155377D02*
X56374468Y-40012520D01*
X56374468Y-40012520D02*
X56326849Y-39917282D01*
X56326849Y-39917282D02*
X56231611Y-39774424D01*
X56231611Y-39774424D02*
X56183992Y-39726805D01*
X56850659Y-41250615D02*
X56898278Y-41202996D01*
X56898278Y-41202996D02*
X56993516Y-41060139D01*
X56993516Y-41060139D02*
X57041135Y-40964901D01*
X57041135Y-40964901D02*
X57088754Y-40822044D01*
X57088754Y-40822044D02*
X57136373Y-40583948D01*
X57136373Y-40583948D02*
X57136373Y-40393472D01*
X57136373Y-40393472D02*
X57088754Y-40155377D01*
X57088754Y-40155377D02*
X57041135Y-40012520D01*
X57041135Y-40012520D02*
X56993516Y-39917282D01*
X56993516Y-39917282D02*
X56898278Y-39774424D01*
X56898278Y-39774424D02*
X56850659Y-39726805D01*
X40667282Y-57637438D02*
X40619663Y-57732676D01*
X40619663Y-57732676D02*
X40619663Y-57875533D01*
X40619663Y-57875533D02*
X40667282Y-58018390D01*
X40667282Y-58018390D02*
X40762520Y-58113628D01*
X40762520Y-58113628D02*
X40857758Y-58161247D01*
X40857758Y-58161247D02*
X41048234Y-58208866D01*
X41048234Y-58208866D02*
X41191091Y-58208866D01*
X41191091Y-58208866D02*
X41381567Y-58161247D01*
X41381567Y-58161247D02*
X41476805Y-58113628D01*
X41476805Y-58113628D02*
X41572044Y-58018390D01*
X41572044Y-58018390D02*
X41619663Y-57875533D01*
X41619663Y-57875533D02*
X41619663Y-57780295D01*
X41619663Y-57780295D02*
X41572044Y-57637438D01*
X41572044Y-57637438D02*
X41524424Y-57589819D01*
X41524424Y-57589819D02*
X41191091Y-57589819D01*
X41191091Y-57589819D02*
X41191091Y-57780295D01*
X41619663Y-57161247D02*
X40619663Y-57161247D01*
X40619663Y-57161247D02*
X41619663Y-56589819D01*
X41619663Y-56589819D02*
X40619663Y-56589819D01*
X41619663Y-56113628D02*
X40619663Y-56113628D01*
X40619663Y-56113628D02*
X40619663Y-55875533D01*
X40619663Y-55875533D02*
X40667282Y-55732676D01*
X40667282Y-55732676D02*
X40762520Y-55637438D01*
X40762520Y-55637438D02*
X40857758Y-55589819D01*
X40857758Y-55589819D02*
X41048234Y-55542200D01*
X41048234Y-55542200D02*
X41191091Y-55542200D01*
X41191091Y-55542200D02*
X41381567Y-55589819D01*
X41381567Y-55589819D02*
X41476805Y-55637438D01*
X41476805Y-55637438D02*
X41572044Y-55732676D01*
X41572044Y-55732676D02*
X41619663Y-55875533D01*
X41619663Y-55875533D02*
X41619663Y-56113628D01*
X41714901Y-55351724D02*
X41714901Y-54589819D01*
X40619663Y-54494580D02*
X40619663Y-53923152D01*
X41619663Y-54208866D02*
X40619663Y-54208866D01*
X41095853Y-53589818D02*
X41095853Y-53256485D01*
X41619663Y-53113628D02*
X41619663Y-53589818D01*
X41619663Y-53589818D02*
X40619663Y-53589818D01*
X40619663Y-53589818D02*
X40619663Y-53113628D01*
X41572044Y-52732675D02*
X41619663Y-52589818D01*
X41619663Y-52589818D02*
X41619663Y-52351723D01*
X41619663Y-52351723D02*
X41572044Y-52256485D01*
X41572044Y-52256485D02*
X41524424Y-52208866D01*
X41524424Y-52208866D02*
X41429186Y-52161247D01*
X41429186Y-52161247D02*
X41333948Y-52161247D01*
X41333948Y-52161247D02*
X41238710Y-52208866D01*
X41238710Y-52208866D02*
X41191091Y-52256485D01*
X41191091Y-52256485D02*
X41143472Y-52351723D01*
X41143472Y-52351723D02*
X41095853Y-52542199D01*
X41095853Y-52542199D02*
X41048234Y-52637437D01*
X41048234Y-52637437D02*
X41000615Y-52685056D01*
X41000615Y-52685056D02*
X40905377Y-52732675D01*
X40905377Y-52732675D02*
X40810139Y-52732675D01*
X40810139Y-52732675D02*
X40714901Y-52685056D01*
X40714901Y-52685056D02*
X40667282Y-52637437D01*
X40667282Y-52637437D02*
X40619663Y-52542199D01*
X40619663Y-52542199D02*
X40619663Y-52304104D01*
X40619663Y-52304104D02*
X40667282Y-52161247D01*
X40619663Y-51875532D02*
X40619663Y-51304104D01*
X41619663Y-51589818D02*
X40619663Y-51589818D01*
X41714901Y-51208866D02*
X41714901Y-50446961D01*
X41619663Y-50208865D02*
X40619663Y-50208865D01*
X40619663Y-50208865D02*
X40619663Y-49827913D01*
X40619663Y-49827913D02*
X40667282Y-49732675D01*
X40667282Y-49732675D02*
X40714901Y-49685056D01*
X40714901Y-49685056D02*
X40810139Y-49637437D01*
X40810139Y-49637437D02*
X40952996Y-49637437D01*
X40952996Y-49637437D02*
X41048234Y-49685056D01*
X41048234Y-49685056D02*
X41095853Y-49732675D01*
X41095853Y-49732675D02*
X41143472Y-49827913D01*
X41143472Y-49827913D02*
X41143472Y-50208865D01*
X39869663Y-36935057D02*
X39869663Y-37411247D01*
X39869663Y-37411247D02*
X40345853Y-37458866D01*
X40345853Y-37458866D02*
X40298234Y-37411247D01*
X40298234Y-37411247D02*
X40250615Y-37316009D01*
X40250615Y-37316009D02*
X40250615Y-37077914D01*
X40250615Y-37077914D02*
X40298234Y-36982676D01*
X40298234Y-36982676D02*
X40345853Y-36935057D01*
X40345853Y-36935057D02*
X40441091Y-36887438D01*
X40441091Y-36887438D02*
X40679186Y-36887438D01*
X40679186Y-36887438D02*
X40774424Y-36935057D01*
X40774424Y-36935057D02*
X40822044Y-36982676D01*
X40822044Y-36982676D02*
X40869663Y-37077914D01*
X40869663Y-37077914D02*
X40869663Y-37316009D01*
X40869663Y-37316009D02*
X40822044Y-37411247D01*
X40822044Y-37411247D02*
X40774424Y-37458866D01*
X39869663Y-36601723D02*
X40869663Y-36268390D01*
X40869663Y-36268390D02*
X39869663Y-35935057D01*
X40869663Y-34839818D02*
X39869663Y-34839818D01*
X40202996Y-34363628D02*
X40869663Y-34363628D01*
X40298234Y-34363628D02*
X40250615Y-34316009D01*
X40250615Y-34316009D02*
X40202996Y-34220771D01*
X40202996Y-34220771D02*
X40202996Y-34077914D01*
X40202996Y-34077914D02*
X40250615Y-33982676D01*
X40250615Y-33982676D02*
X40345853Y-33935057D01*
X40345853Y-33935057D02*
X40869663Y-33935057D01*
X40869663Y-32173152D02*
X40869663Y-32744580D01*
X40869663Y-32458866D02*
X39869663Y-32458866D01*
X39869663Y-32458866D02*
X40012520Y-32554104D01*
X40012520Y-32554104D02*
X40107758Y-32649342D01*
X40107758Y-32649342D02*
X40155377Y-32744580D01*
X40583948Y-31792199D02*
X40583948Y-31316009D01*
X40869663Y-31887437D02*
X39869663Y-31554104D01*
X39869663Y-31554104D02*
X40869663Y-31220771D01*
D11*
X52474318Y-57861666D02*
X52474318Y-58466428D01*
X52474318Y-58466428D02*
X51204318Y-58466428D01*
X52474318Y-56773094D02*
X52474318Y-57498809D01*
X52474318Y-57135952D02*
X51204318Y-57135952D01*
X51204318Y-57135952D02*
X51385746Y-57256904D01*
X51385746Y-57256904D02*
X51506699Y-57377856D01*
X51506699Y-57377856D02*
X51567175Y-57498809D01*
D10*
X61609424Y-31216666D02*
X61657044Y-31264285D01*
X61657044Y-31264285D02*
X61704663Y-31407142D01*
X61704663Y-31407142D02*
X61704663Y-31502380D01*
X61704663Y-31502380D02*
X61657044Y-31645237D01*
X61657044Y-31645237D02*
X61561805Y-31740475D01*
X61561805Y-31740475D02*
X61466567Y-31788094D01*
X61466567Y-31788094D02*
X61276091Y-31835713D01*
X61276091Y-31835713D02*
X61133234Y-31835713D01*
X61133234Y-31835713D02*
X60942758Y-31788094D01*
X60942758Y-31788094D02*
X60847520Y-31740475D01*
X60847520Y-31740475D02*
X60752282Y-31645237D01*
X60752282Y-31645237D02*
X60704663Y-31502380D01*
X60704663Y-31502380D02*
X60704663Y-31407142D01*
X60704663Y-31407142D02*
X60752282Y-31264285D01*
X60752282Y-31264285D02*
X60799901Y-31216666D01*
X60799901Y-30835713D02*
X60752282Y-30788094D01*
X60752282Y-30788094D02*
X60704663Y-30692856D01*
X60704663Y-30692856D02*
X60704663Y-30454761D01*
X60704663Y-30454761D02*
X60752282Y-30359523D01*
X60752282Y-30359523D02*
X60799901Y-30311904D01*
X60799901Y-30311904D02*
X60895139Y-30264285D01*
X60895139Y-30264285D02*
X60990377Y-30264285D01*
X60990377Y-30264285D02*
X61133234Y-30311904D01*
X61133234Y-30311904D02*
X61704663Y-30883332D01*
X61704663Y-30883332D02*
X61704663Y-30264285D01*
X60138095Y-36654663D02*
X60709523Y-36654663D01*
X60423809Y-37654663D02*
X60423809Y-36654663D01*
X61042857Y-37654663D02*
X61042857Y-36654663D01*
X61042857Y-36654663D02*
X61423809Y-36654663D01*
X61423809Y-36654663D02*
X61519047Y-36702282D01*
X61519047Y-36702282D02*
X61566666Y-36749901D01*
X61566666Y-36749901D02*
X61614285Y-36845139D01*
X61614285Y-36845139D02*
X61614285Y-36987996D01*
X61614285Y-36987996D02*
X61566666Y-37083234D01*
X61566666Y-37083234D02*
X61519047Y-37130853D01*
X61519047Y-37130853D02*
X61423809Y-37178472D01*
X61423809Y-37178472D02*
X61042857Y-37178472D01*
X61995238Y-36749901D02*
X62042857Y-36702282D01*
X62042857Y-36702282D02*
X62138095Y-36654663D01*
X62138095Y-36654663D02*
X62376190Y-36654663D01*
X62376190Y-36654663D02*
X62471428Y-36702282D01*
X62471428Y-36702282D02*
X62519047Y-36749901D01*
X62519047Y-36749901D02*
X62566666Y-36845139D01*
X62566666Y-36845139D02*
X62566666Y-36940377D01*
X62566666Y-36940377D02*
X62519047Y-37083234D01*
X62519047Y-37083234D02*
X61947619Y-37654663D01*
X61947619Y-37654663D02*
X62566666Y-37654663D01*
D11*
X50527856Y-43094318D02*
X50527856Y-41824318D01*
X50527856Y-41824318D02*
X51011666Y-41824318D01*
X51011666Y-41824318D02*
X51132618Y-41884794D01*
X51132618Y-41884794D02*
X51193095Y-41945270D01*
X51193095Y-41945270D02*
X51253571Y-42066222D01*
X51253571Y-42066222D02*
X51253571Y-42247651D01*
X51253571Y-42247651D02*
X51193095Y-42368603D01*
X51193095Y-42368603D02*
X51132618Y-42429080D01*
X51132618Y-42429080D02*
X51011666Y-42489556D01*
X51011666Y-42489556D02*
X50527856Y-42489556D01*
X51737380Y-43033842D02*
X51918809Y-43094318D01*
X51918809Y-43094318D02*
X52221190Y-43094318D01*
X52221190Y-43094318D02*
X52342142Y-43033842D01*
X52342142Y-43033842D02*
X52402618Y-42973365D01*
X52402618Y-42973365D02*
X52463095Y-42852413D01*
X52463095Y-42852413D02*
X52463095Y-42731461D01*
X52463095Y-42731461D02*
X52402618Y-42610508D01*
X52402618Y-42610508D02*
X52342142Y-42550032D01*
X52342142Y-42550032D02*
X52221190Y-42489556D01*
X52221190Y-42489556D02*
X51979285Y-42429080D01*
X51979285Y-42429080D02*
X51858333Y-42368603D01*
X51858333Y-42368603D02*
X51797856Y-42308127D01*
X51797856Y-42308127D02*
X51737380Y-42187175D01*
X51737380Y-42187175D02*
X51737380Y-42066222D01*
X51737380Y-42066222D02*
X51797856Y-41945270D01*
X51797856Y-41945270D02*
X51858333Y-41884794D01*
X51858333Y-41884794D02*
X51979285Y-41824318D01*
X51979285Y-41824318D02*
X52281666Y-41824318D01*
X52281666Y-41824318D02*
X52463095Y-41884794D01*
X52946904Y-41945270D02*
X53007380Y-41884794D01*
X53007380Y-41884794D02*
X53128333Y-41824318D01*
X53128333Y-41824318D02*
X53430714Y-41824318D01*
X53430714Y-41824318D02*
X53551666Y-41884794D01*
X53551666Y-41884794D02*
X53612142Y-41945270D01*
X53612142Y-41945270D02*
X53672619Y-42066222D01*
X53672619Y-42066222D02*
X53672619Y-42187175D01*
X53672619Y-42187175D02*
X53612142Y-42368603D01*
X53612142Y-42368603D02*
X52886428Y-43094318D01*
X52886428Y-43094318D02*
X53672619Y-43094318D01*
D10*
X47754663Y-45326666D02*
X47278472Y-45659999D01*
X47754663Y-45898094D02*
X46754663Y-45898094D01*
X46754663Y-45898094D02*
X46754663Y-45517142D01*
X46754663Y-45517142D02*
X46802282Y-45421904D01*
X46802282Y-45421904D02*
X46849901Y-45374285D01*
X46849901Y-45374285D02*
X46945139Y-45326666D01*
X46945139Y-45326666D02*
X47087996Y-45326666D01*
X47087996Y-45326666D02*
X47183234Y-45374285D01*
X47183234Y-45374285D02*
X47230853Y-45421904D01*
X47230853Y-45421904D02*
X47278472Y-45517142D01*
X47278472Y-45517142D02*
X47278472Y-45898094D01*
X47754663Y-44374285D02*
X47754663Y-44945713D01*
X47754663Y-44659999D02*
X46754663Y-44659999D01*
X46754663Y-44659999D02*
X46897520Y-44755237D01*
X46897520Y-44755237D02*
X46992758Y-44850475D01*
X46992758Y-44850475D02*
X47040377Y-44945713D01*
X58967163Y-59036904D02*
X58967163Y-58465476D01*
X59967163Y-58751190D02*
X58967163Y-58751190D01*
X59967163Y-58132142D02*
X58967163Y-58132142D01*
X58967163Y-58132142D02*
X58967163Y-57751190D01*
X58967163Y-57751190D02*
X59014782Y-57655952D01*
X59014782Y-57655952D02*
X59062401Y-57608333D01*
X59062401Y-57608333D02*
X59157639Y-57560714D01*
X59157639Y-57560714D02*
X59300496Y-57560714D01*
X59300496Y-57560714D02*
X59395734Y-57608333D01*
X59395734Y-57608333D02*
X59443353Y-57655952D01*
X59443353Y-57655952D02*
X59490972Y-57751190D01*
X59490972Y-57751190D02*
X59490972Y-58132142D01*
X59395734Y-56989285D02*
X59348115Y-57084523D01*
X59348115Y-57084523D02*
X59300496Y-57132142D01*
X59300496Y-57132142D02*
X59205258Y-57179761D01*
X59205258Y-57179761D02*
X59157639Y-57179761D01*
X59157639Y-57179761D02*
X59062401Y-57132142D01*
X59062401Y-57132142D02*
X59014782Y-57084523D01*
X59014782Y-57084523D02*
X58967163Y-56989285D01*
X58967163Y-56989285D02*
X58967163Y-56798809D01*
X58967163Y-56798809D02*
X59014782Y-56703571D01*
X59014782Y-56703571D02*
X59062401Y-56655952D01*
X59062401Y-56655952D02*
X59157639Y-56608333D01*
X59157639Y-56608333D02*
X59205258Y-56608333D01*
X59205258Y-56608333D02*
X59300496Y-56655952D01*
X59300496Y-56655952D02*
X59348115Y-56703571D01*
X59348115Y-56703571D02*
X59395734Y-56798809D01*
X59395734Y-56798809D02*
X59395734Y-56989285D01*
X59395734Y-56989285D02*
X59443353Y-57084523D01*
X59443353Y-57084523D02*
X59490972Y-57132142D01*
X59490972Y-57132142D02*
X59586210Y-57179761D01*
X59586210Y-57179761D02*
X59776686Y-57179761D01*
X59776686Y-57179761D02*
X59871924Y-57132142D01*
X59871924Y-57132142D02*
X59919544Y-57084523D01*
X59919544Y-57084523D02*
X59967163Y-56989285D01*
X59967163Y-56989285D02*
X59967163Y-56798809D01*
X59967163Y-56798809D02*
X59919544Y-56703571D01*
X59919544Y-56703571D02*
X59871924Y-56655952D01*
X59871924Y-56655952D02*
X59776686Y-56608333D01*
X59776686Y-56608333D02*
X59586210Y-56608333D01*
X59586210Y-56608333D02*
X59490972Y-56655952D01*
X59490972Y-56655952D02*
X59443353Y-56703571D01*
X59443353Y-56703571D02*
X59395734Y-56798809D01*
X49533333Y-67684424D02*
X49485714Y-67732044D01*
X49485714Y-67732044D02*
X49342857Y-67779663D01*
X49342857Y-67779663D02*
X49247619Y-67779663D01*
X49247619Y-67779663D02*
X49104762Y-67732044D01*
X49104762Y-67732044D02*
X49009524Y-67636805D01*
X49009524Y-67636805D02*
X48961905Y-67541567D01*
X48961905Y-67541567D02*
X48914286Y-67351091D01*
X48914286Y-67351091D02*
X48914286Y-67208234D01*
X48914286Y-67208234D02*
X48961905Y-67017758D01*
X48961905Y-67017758D02*
X49009524Y-66922520D01*
X49009524Y-66922520D02*
X49104762Y-66827282D01*
X49104762Y-66827282D02*
X49247619Y-66779663D01*
X49247619Y-66779663D02*
X49342857Y-66779663D01*
X49342857Y-66779663D02*
X49485714Y-66827282D01*
X49485714Y-66827282D02*
X49533333Y-66874901D01*
X50390476Y-66779663D02*
X50200000Y-66779663D01*
X50200000Y-66779663D02*
X50104762Y-66827282D01*
X50104762Y-66827282D02*
X50057143Y-66874901D01*
X50057143Y-66874901D02*
X49961905Y-67017758D01*
X49961905Y-67017758D02*
X49914286Y-67208234D01*
X49914286Y-67208234D02*
X49914286Y-67589186D01*
X49914286Y-67589186D02*
X49961905Y-67684424D01*
X49961905Y-67684424D02*
X50009524Y-67732044D01*
X50009524Y-67732044D02*
X50104762Y-67779663D01*
X50104762Y-67779663D02*
X50295238Y-67779663D01*
X50295238Y-67779663D02*
X50390476Y-67732044D01*
X50390476Y-67732044D02*
X50438095Y-67684424D01*
X50438095Y-67684424D02*
X50485714Y-67589186D01*
X50485714Y-67589186D02*
X50485714Y-67351091D01*
X50485714Y-67351091D02*
X50438095Y-67255853D01*
X50438095Y-67255853D02*
X50390476Y-67208234D01*
X50390476Y-67208234D02*
X50295238Y-67160615D01*
X50295238Y-67160615D02*
X50104762Y-67160615D01*
X50104762Y-67160615D02*
X50009524Y-67208234D01*
X50009524Y-67208234D02*
X49961905Y-67255853D01*
X49961905Y-67255853D02*
X49914286Y-67351091D01*
X60238095Y-46954663D02*
X60809523Y-46954663D01*
X60523809Y-47954663D02*
X60523809Y-46954663D01*
X61142857Y-47954663D02*
X61142857Y-46954663D01*
X61142857Y-46954663D02*
X61523809Y-46954663D01*
X61523809Y-46954663D02*
X61619047Y-47002282D01*
X61619047Y-47002282D02*
X61666666Y-47049901D01*
X61666666Y-47049901D02*
X61714285Y-47145139D01*
X61714285Y-47145139D02*
X61714285Y-47287996D01*
X61714285Y-47287996D02*
X61666666Y-47383234D01*
X61666666Y-47383234D02*
X61619047Y-47430853D01*
X61619047Y-47430853D02*
X61523809Y-47478472D01*
X61523809Y-47478472D02*
X61142857Y-47478472D01*
X62571428Y-47287996D02*
X62571428Y-47954663D01*
X62333333Y-46907044D02*
X62095238Y-47621329D01*
X62095238Y-47621329D02*
X62714285Y-47621329D01*
X55133333Y-68134424D02*
X55085714Y-68182044D01*
X55085714Y-68182044D02*
X54942857Y-68229663D01*
X54942857Y-68229663D02*
X54847619Y-68229663D01*
X54847619Y-68229663D02*
X54704762Y-68182044D01*
X54704762Y-68182044D02*
X54609524Y-68086805D01*
X54609524Y-68086805D02*
X54561905Y-67991567D01*
X54561905Y-67991567D02*
X54514286Y-67801091D01*
X54514286Y-67801091D02*
X54514286Y-67658234D01*
X54514286Y-67658234D02*
X54561905Y-67467758D01*
X54561905Y-67467758D02*
X54609524Y-67372520D01*
X54609524Y-67372520D02*
X54704762Y-67277282D01*
X54704762Y-67277282D02*
X54847619Y-67229663D01*
X54847619Y-67229663D02*
X54942857Y-67229663D01*
X54942857Y-67229663D02*
X55085714Y-67277282D01*
X55085714Y-67277282D02*
X55133333Y-67324901D01*
X55704762Y-67658234D02*
X55609524Y-67610615D01*
X55609524Y-67610615D02*
X55561905Y-67562996D01*
X55561905Y-67562996D02*
X55514286Y-67467758D01*
X55514286Y-67467758D02*
X55514286Y-67420139D01*
X55514286Y-67420139D02*
X55561905Y-67324901D01*
X55561905Y-67324901D02*
X55609524Y-67277282D01*
X55609524Y-67277282D02*
X55704762Y-67229663D01*
X55704762Y-67229663D02*
X55895238Y-67229663D01*
X55895238Y-67229663D02*
X55990476Y-67277282D01*
X55990476Y-67277282D02*
X56038095Y-67324901D01*
X56038095Y-67324901D02*
X56085714Y-67420139D01*
X56085714Y-67420139D02*
X56085714Y-67467758D01*
X56085714Y-67467758D02*
X56038095Y-67562996D01*
X56038095Y-67562996D02*
X55990476Y-67610615D01*
X55990476Y-67610615D02*
X55895238Y-67658234D01*
X55895238Y-67658234D02*
X55704762Y-67658234D01*
X55704762Y-67658234D02*
X55609524Y-67705853D01*
X55609524Y-67705853D02*
X55561905Y-67753472D01*
X55561905Y-67753472D02*
X55514286Y-67848710D01*
X55514286Y-67848710D02*
X55514286Y-68039186D01*
X55514286Y-68039186D02*
X55561905Y-68134424D01*
X55561905Y-68134424D02*
X55609524Y-68182044D01*
X55609524Y-68182044D02*
X55704762Y-68229663D01*
X55704762Y-68229663D02*
X55895238Y-68229663D01*
X55895238Y-68229663D02*
X55990476Y-68182044D01*
X55990476Y-68182044D02*
X56038095Y-68134424D01*
X56038095Y-68134424D02*
X56085714Y-68039186D01*
X56085714Y-68039186D02*
X56085714Y-67848710D01*
X56085714Y-67848710D02*
X56038095Y-67753472D01*
X56038095Y-67753472D02*
X55990476Y-67705853D01*
X55990476Y-67705853D02*
X55895238Y-67658234D01*
X63242163Y-40388094D02*
X62242163Y-40388094D01*
X62242163Y-40388094D02*
X62242163Y-40149999D01*
X62242163Y-40149999D02*
X62289782Y-40007142D01*
X62289782Y-40007142D02*
X62385020Y-39911904D01*
X62385020Y-39911904D02*
X62480258Y-39864285D01*
X62480258Y-39864285D02*
X62670734Y-39816666D01*
X62670734Y-39816666D02*
X62813591Y-39816666D01*
X62813591Y-39816666D02*
X63004067Y-39864285D01*
X63004067Y-39864285D02*
X63099305Y-39911904D01*
X63099305Y-39911904D02*
X63194544Y-40007142D01*
X63194544Y-40007142D02*
X63242163Y-40149999D01*
X63242163Y-40149999D02*
X63242163Y-40388094D01*
X63242163Y-38864285D02*
X63242163Y-39435713D01*
X63242163Y-39149999D02*
X62242163Y-39149999D01*
X62242163Y-39149999D02*
X62385020Y-39245237D01*
X62385020Y-39245237D02*
X62480258Y-39340475D01*
X62480258Y-39340475D02*
X62527877Y-39435713D01*
X60457163Y-64641666D02*
X59980972Y-64974999D01*
X60457163Y-65213094D02*
X59457163Y-65213094D01*
X59457163Y-65213094D02*
X59457163Y-64832142D01*
X59457163Y-64832142D02*
X59504782Y-64736904D01*
X59504782Y-64736904D02*
X59552401Y-64689285D01*
X59552401Y-64689285D02*
X59647639Y-64641666D01*
X59647639Y-64641666D02*
X59790496Y-64641666D01*
X59790496Y-64641666D02*
X59885734Y-64689285D01*
X59885734Y-64689285D02*
X59933353Y-64736904D01*
X59933353Y-64736904D02*
X59980972Y-64832142D01*
X59980972Y-64832142D02*
X59980972Y-65213094D01*
X59552401Y-64260713D02*
X59504782Y-64213094D01*
X59504782Y-64213094D02*
X59457163Y-64117856D01*
X59457163Y-64117856D02*
X59457163Y-63879761D01*
X59457163Y-63879761D02*
X59504782Y-63784523D01*
X59504782Y-63784523D02*
X59552401Y-63736904D01*
X59552401Y-63736904D02*
X59647639Y-63689285D01*
X59647639Y-63689285D02*
X59742877Y-63689285D01*
X59742877Y-63689285D02*
X59885734Y-63736904D01*
X59885734Y-63736904D02*
X60457163Y-64308332D01*
X60457163Y-64308332D02*
X60457163Y-63689285D01*
X59154663Y-67291666D02*
X58678472Y-67624999D01*
X59154663Y-67863094D02*
X58154663Y-67863094D01*
X58154663Y-67863094D02*
X58154663Y-67482142D01*
X58154663Y-67482142D02*
X58202282Y-67386904D01*
X58202282Y-67386904D02*
X58249901Y-67339285D01*
X58249901Y-67339285D02*
X58345139Y-67291666D01*
X58345139Y-67291666D02*
X58487996Y-67291666D01*
X58487996Y-67291666D02*
X58583234Y-67339285D01*
X58583234Y-67339285D02*
X58630853Y-67386904D01*
X58630853Y-67386904D02*
X58678472Y-67482142D01*
X58678472Y-67482142D02*
X58678472Y-67863094D01*
X58154663Y-66958332D02*
X58154663Y-66339285D01*
X58154663Y-66339285D02*
X58535615Y-66672618D01*
X58535615Y-66672618D02*
X58535615Y-66529761D01*
X58535615Y-66529761D02*
X58583234Y-66434523D01*
X58583234Y-66434523D02*
X58630853Y-66386904D01*
X58630853Y-66386904D02*
X58726091Y-66339285D01*
X58726091Y-66339285D02*
X58964186Y-66339285D01*
X58964186Y-66339285D02*
X59059424Y-66386904D01*
X59059424Y-66386904D02*
X59107044Y-66434523D01*
X59107044Y-66434523D02*
X59154663Y-66529761D01*
X59154663Y-66529761D02*
X59154663Y-66815475D01*
X59154663Y-66815475D02*
X59107044Y-66910713D01*
X59107044Y-66910713D02*
X59059424Y-66958332D01*
X58083333Y-42104663D02*
X57750000Y-41628472D01*
X57511905Y-42104663D02*
X57511905Y-41104663D01*
X57511905Y-41104663D02*
X57892857Y-41104663D01*
X57892857Y-41104663D02*
X57988095Y-41152282D01*
X57988095Y-41152282D02*
X58035714Y-41199901D01*
X58035714Y-41199901D02*
X58083333Y-41295139D01*
X58083333Y-41295139D02*
X58083333Y-41437996D01*
X58083333Y-41437996D02*
X58035714Y-41533234D01*
X58035714Y-41533234D02*
X57988095Y-41580853D01*
X57988095Y-41580853D02*
X57892857Y-41628472D01*
X57892857Y-41628472D02*
X57511905Y-41628472D01*
X58988095Y-41104663D02*
X58511905Y-41104663D01*
X58511905Y-41104663D02*
X58464286Y-41580853D01*
X58464286Y-41580853D02*
X58511905Y-41533234D01*
X58511905Y-41533234D02*
X58607143Y-41485615D01*
X58607143Y-41485615D02*
X58845238Y-41485615D01*
X58845238Y-41485615D02*
X58940476Y-41533234D01*
X58940476Y-41533234D02*
X58988095Y-41580853D01*
X58988095Y-41580853D02*
X59035714Y-41676091D01*
X59035714Y-41676091D02*
X59035714Y-41914186D01*
X59035714Y-41914186D02*
X58988095Y-42009424D01*
X58988095Y-42009424D02*
X58940476Y-42057044D01*
X58940476Y-42057044D02*
X58845238Y-42104663D01*
X58845238Y-42104663D02*
X58607143Y-42104663D01*
X58607143Y-42104663D02*
X58511905Y-42057044D01*
X58511905Y-42057044D02*
X58464286Y-42009424D01*
X47233333Y-37759424D02*
X47185714Y-37807044D01*
X47185714Y-37807044D02*
X47042857Y-37854663D01*
X47042857Y-37854663D02*
X46947619Y-37854663D01*
X46947619Y-37854663D02*
X46804762Y-37807044D01*
X46804762Y-37807044D02*
X46709524Y-37711805D01*
X46709524Y-37711805D02*
X46661905Y-37616567D01*
X46661905Y-37616567D02*
X46614286Y-37426091D01*
X46614286Y-37426091D02*
X46614286Y-37283234D01*
X46614286Y-37283234D02*
X46661905Y-37092758D01*
X46661905Y-37092758D02*
X46709524Y-36997520D01*
X46709524Y-36997520D02*
X46804762Y-36902282D01*
X46804762Y-36902282D02*
X46947619Y-36854663D01*
X46947619Y-36854663D02*
X47042857Y-36854663D01*
X47042857Y-36854663D02*
X47185714Y-36902282D01*
X47185714Y-36902282D02*
X47233333Y-36949901D01*
X48185714Y-37854663D02*
X47614286Y-37854663D01*
X47900000Y-37854663D02*
X47900000Y-36854663D01*
X47900000Y-36854663D02*
X47804762Y-36997520D01*
X47804762Y-36997520D02*
X47709524Y-37092758D01*
X47709524Y-37092758D02*
X47614286Y-37140377D01*
X56833333Y-56359424D02*
X56785714Y-56407044D01*
X56785714Y-56407044D02*
X56642857Y-56454663D01*
X56642857Y-56454663D02*
X56547619Y-56454663D01*
X56547619Y-56454663D02*
X56404762Y-56407044D01*
X56404762Y-56407044D02*
X56309524Y-56311805D01*
X56309524Y-56311805D02*
X56261905Y-56216567D01*
X56261905Y-56216567D02*
X56214286Y-56026091D01*
X56214286Y-56026091D02*
X56214286Y-55883234D01*
X56214286Y-55883234D02*
X56261905Y-55692758D01*
X56261905Y-55692758D02*
X56309524Y-55597520D01*
X56309524Y-55597520D02*
X56404762Y-55502282D01*
X56404762Y-55502282D02*
X56547619Y-55454663D01*
X56547619Y-55454663D02*
X56642857Y-55454663D01*
X56642857Y-55454663D02*
X56785714Y-55502282D01*
X56785714Y-55502282D02*
X56833333Y-55549901D01*
X57309524Y-56454663D02*
X57500000Y-56454663D01*
X57500000Y-56454663D02*
X57595238Y-56407044D01*
X57595238Y-56407044D02*
X57642857Y-56359424D01*
X57642857Y-56359424D02*
X57738095Y-56216567D01*
X57738095Y-56216567D02*
X57785714Y-56026091D01*
X57785714Y-56026091D02*
X57785714Y-55645139D01*
X57785714Y-55645139D02*
X57738095Y-55549901D01*
X57738095Y-55549901D02*
X57690476Y-55502282D01*
X57690476Y-55502282D02*
X57595238Y-55454663D01*
X57595238Y-55454663D02*
X57404762Y-55454663D01*
X57404762Y-55454663D02*
X57309524Y-55502282D01*
X57309524Y-55502282D02*
X57261905Y-55549901D01*
X57261905Y-55549901D02*
X57214286Y-55645139D01*
X57214286Y-55645139D02*
X57214286Y-55883234D01*
X57214286Y-55883234D02*
X57261905Y-55978472D01*
X57261905Y-55978472D02*
X57309524Y-56026091D01*
X57309524Y-56026091D02*
X57404762Y-56073710D01*
X57404762Y-56073710D02*
X57595238Y-56073710D01*
X57595238Y-56073710D02*
X57690476Y-56026091D01*
X57690476Y-56026091D02*
X57738095Y-55978472D01*
X57738095Y-55978472D02*
X57785714Y-55883234D01*
X53333333Y-51104663D02*
X53000000Y-50628472D01*
X52761905Y-51104663D02*
X52761905Y-50104663D01*
X52761905Y-50104663D02*
X53142857Y-50104663D01*
X53142857Y-50104663D02*
X53238095Y-50152282D01*
X53238095Y-50152282D02*
X53285714Y-50199901D01*
X53285714Y-50199901D02*
X53333333Y-50295139D01*
X53333333Y-50295139D02*
X53333333Y-50437996D01*
X53333333Y-50437996D02*
X53285714Y-50533234D01*
X53285714Y-50533234D02*
X53238095Y-50580853D01*
X53238095Y-50580853D02*
X53142857Y-50628472D01*
X53142857Y-50628472D02*
X52761905Y-50628472D01*
X54190476Y-50104663D02*
X54000000Y-50104663D01*
X54000000Y-50104663D02*
X53904762Y-50152282D01*
X53904762Y-50152282D02*
X53857143Y-50199901D01*
X53857143Y-50199901D02*
X53761905Y-50342758D01*
X53761905Y-50342758D02*
X53714286Y-50533234D01*
X53714286Y-50533234D02*
X53714286Y-50914186D01*
X53714286Y-50914186D02*
X53761905Y-51009424D01*
X53761905Y-51009424D02*
X53809524Y-51057044D01*
X53809524Y-51057044D02*
X53904762Y-51104663D01*
X53904762Y-51104663D02*
X54095238Y-51104663D01*
X54095238Y-51104663D02*
X54190476Y-51057044D01*
X54190476Y-51057044D02*
X54238095Y-51009424D01*
X54238095Y-51009424D02*
X54285714Y-50914186D01*
X54285714Y-50914186D02*
X54285714Y-50676091D01*
X54285714Y-50676091D02*
X54238095Y-50580853D01*
X54238095Y-50580853D02*
X54190476Y-50533234D01*
X54190476Y-50533234D02*
X54095238Y-50485615D01*
X54095238Y-50485615D02*
X53904762Y-50485615D01*
X53904762Y-50485615D02*
X53809524Y-50533234D01*
X53809524Y-50533234D02*
X53761905Y-50580853D01*
X53761905Y-50580853D02*
X53714286Y-50676091D01*
X45704663Y-55761904D02*
X45704663Y-55190476D01*
X46704663Y-55476190D02*
X45704663Y-55476190D01*
X46704663Y-54857142D02*
X45704663Y-54857142D01*
X45704663Y-54857142D02*
X45704663Y-54476190D01*
X45704663Y-54476190D02*
X45752282Y-54380952D01*
X45752282Y-54380952D02*
X45799901Y-54333333D01*
X45799901Y-54333333D02*
X45895139Y-54285714D01*
X45895139Y-54285714D02*
X46037996Y-54285714D01*
X46037996Y-54285714D02*
X46133234Y-54333333D01*
X46133234Y-54333333D02*
X46180853Y-54380952D01*
X46180853Y-54380952D02*
X46228472Y-54476190D01*
X46228472Y-54476190D02*
X46228472Y-54857142D01*
X46704663Y-53809523D02*
X46704663Y-53619047D01*
X46704663Y-53619047D02*
X46657044Y-53523809D01*
X46657044Y-53523809D02*
X46609424Y-53476190D01*
X46609424Y-53476190D02*
X46466567Y-53380952D01*
X46466567Y-53380952D02*
X46276091Y-53333333D01*
X46276091Y-53333333D02*
X45895139Y-53333333D01*
X45895139Y-53333333D02*
X45799901Y-53380952D01*
X45799901Y-53380952D02*
X45752282Y-53428571D01*
X45752282Y-53428571D02*
X45704663Y-53523809D01*
X45704663Y-53523809D02*
X45704663Y-53714285D01*
X45704663Y-53714285D02*
X45752282Y-53809523D01*
X45752282Y-53809523D02*
X45799901Y-53857142D01*
X45799901Y-53857142D02*
X45895139Y-53904761D01*
X45895139Y-53904761D02*
X46133234Y-53904761D01*
X46133234Y-53904761D02*
X46228472Y-53857142D01*
X46228472Y-53857142D02*
X46276091Y-53809523D01*
X46276091Y-53809523D02*
X46323710Y-53714285D01*
X46323710Y-53714285D02*
X46323710Y-53523809D01*
X46323710Y-53523809D02*
X46276091Y-53428571D01*
X46276091Y-53428571D02*
X46228472Y-53380952D01*
X46228472Y-53380952D02*
X46133234Y-53333333D01*
X47883333Y-63509424D02*
X47835714Y-63557044D01*
X47835714Y-63557044D02*
X47692857Y-63604663D01*
X47692857Y-63604663D02*
X47597619Y-63604663D01*
X47597619Y-63604663D02*
X47454762Y-63557044D01*
X47454762Y-63557044D02*
X47359524Y-63461805D01*
X47359524Y-63461805D02*
X47311905Y-63366567D01*
X47311905Y-63366567D02*
X47264286Y-63176091D01*
X47264286Y-63176091D02*
X47264286Y-63033234D01*
X47264286Y-63033234D02*
X47311905Y-62842758D01*
X47311905Y-62842758D02*
X47359524Y-62747520D01*
X47359524Y-62747520D02*
X47454762Y-62652282D01*
X47454762Y-62652282D02*
X47597619Y-62604663D01*
X47597619Y-62604663D02*
X47692857Y-62604663D01*
X47692857Y-62604663D02*
X47835714Y-62652282D01*
X47835714Y-62652282D02*
X47883333Y-62699901D01*
X48788095Y-62604663D02*
X48311905Y-62604663D01*
X48311905Y-62604663D02*
X48264286Y-63080853D01*
X48264286Y-63080853D02*
X48311905Y-63033234D01*
X48311905Y-63033234D02*
X48407143Y-62985615D01*
X48407143Y-62985615D02*
X48645238Y-62985615D01*
X48645238Y-62985615D02*
X48740476Y-63033234D01*
X48740476Y-63033234D02*
X48788095Y-63080853D01*
X48788095Y-63080853D02*
X48835714Y-63176091D01*
X48835714Y-63176091D02*
X48835714Y-63414186D01*
X48835714Y-63414186D02*
X48788095Y-63509424D01*
X48788095Y-63509424D02*
X48740476Y-63557044D01*
X48740476Y-63557044D02*
X48645238Y-63604663D01*
X48645238Y-63604663D02*
X48407143Y-63604663D01*
X48407143Y-63604663D02*
X48311905Y-63557044D01*
X48311905Y-63557044D02*
X48264286Y-63509424D01*
X55853333Y-44059424D02*
X55805714Y-44107044D01*
X55805714Y-44107044D02*
X55662857Y-44154663D01*
X55662857Y-44154663D02*
X55567619Y-44154663D01*
X55567619Y-44154663D02*
X55424762Y-44107044D01*
X55424762Y-44107044D02*
X55329524Y-44011805D01*
X55329524Y-44011805D02*
X55281905Y-43916567D01*
X55281905Y-43916567D02*
X55234286Y-43726091D01*
X55234286Y-43726091D02*
X55234286Y-43583234D01*
X55234286Y-43583234D02*
X55281905Y-43392758D01*
X55281905Y-43392758D02*
X55329524Y-43297520D01*
X55329524Y-43297520D02*
X55424762Y-43202282D01*
X55424762Y-43202282D02*
X55567619Y-43154663D01*
X55567619Y-43154663D02*
X55662857Y-43154663D01*
X55662857Y-43154663D02*
X55805714Y-43202282D01*
X55805714Y-43202282D02*
X55853333Y-43249901D01*
X56710476Y-43487996D02*
X56710476Y-44154663D01*
X56472381Y-43107044D02*
X56234286Y-43821329D01*
X56234286Y-43821329D02*
X56853333Y-43821329D01*
X42866666Y-37734663D02*
X42866666Y-38448948D01*
X42866666Y-38448948D02*
X42819047Y-38591805D01*
X42819047Y-38591805D02*
X42723809Y-38687044D01*
X42723809Y-38687044D02*
X42580952Y-38734663D01*
X42580952Y-38734663D02*
X42485714Y-38734663D01*
X43866666Y-38734663D02*
X43295238Y-38734663D01*
X43580952Y-38734663D02*
X43580952Y-37734663D01*
X43580952Y-37734663D02*
X43485714Y-37877520D01*
X43485714Y-37877520D02*
X43390476Y-37972758D01*
X43390476Y-37972758D02*
X43295238Y-38020377D01*
X43636666Y-42774663D02*
X43636666Y-43488948D01*
X43636666Y-43488948D02*
X43589047Y-43631805D01*
X43589047Y-43631805D02*
X43493809Y-43727044D01*
X43493809Y-43727044D02*
X43350952Y-43774663D01*
X43350952Y-43774663D02*
X43255714Y-43774663D01*
X44065238Y-42869901D02*
X44112857Y-42822282D01*
X44112857Y-42822282D02*
X44208095Y-42774663D01*
X44208095Y-42774663D02*
X44446190Y-42774663D01*
X44446190Y-42774663D02*
X44541428Y-42822282D01*
X44541428Y-42822282D02*
X44589047Y-42869901D01*
X44589047Y-42869901D02*
X44636666Y-42965139D01*
X44636666Y-42965139D02*
X44636666Y-43060377D01*
X44636666Y-43060377D02*
X44589047Y-43203234D01*
X44589047Y-43203234D02*
X44017619Y-43774663D01*
X44017619Y-43774663D02*
X44636666Y-43774663D01*
X43916666Y-68484663D02*
X43916666Y-69198948D01*
X43916666Y-69198948D02*
X43869047Y-69341805D01*
X43869047Y-69341805D02*
X43773809Y-69437044D01*
X43773809Y-69437044D02*
X43630952Y-69484663D01*
X43630952Y-69484663D02*
X43535714Y-69484663D01*
X44297619Y-68484663D02*
X44916666Y-68484663D01*
X44916666Y-68484663D02*
X44583333Y-68865615D01*
X44583333Y-68865615D02*
X44726190Y-68865615D01*
X44726190Y-68865615D02*
X44821428Y-68913234D01*
X44821428Y-68913234D02*
X44869047Y-68960853D01*
X44869047Y-68960853D02*
X44916666Y-69056091D01*
X44916666Y-69056091D02*
X44916666Y-69294186D01*
X44916666Y-69294186D02*
X44869047Y-69389424D01*
X44869047Y-69389424D02*
X44821428Y-69437044D01*
X44821428Y-69437044D02*
X44726190Y-69484663D01*
X44726190Y-69484663D02*
X44440476Y-69484663D01*
X44440476Y-69484663D02*
X44345238Y-69437044D01*
X44345238Y-69437044D02*
X44297619Y-69389424D01*
X63154663Y-61213094D02*
X62154663Y-61213094D01*
X62154663Y-61213094D02*
X62154663Y-60974999D01*
X62154663Y-60974999D02*
X62202282Y-60832142D01*
X62202282Y-60832142D02*
X62297520Y-60736904D01*
X62297520Y-60736904D02*
X62392758Y-60689285D01*
X62392758Y-60689285D02*
X62583234Y-60641666D01*
X62583234Y-60641666D02*
X62726091Y-60641666D01*
X62726091Y-60641666D02*
X62916567Y-60689285D01*
X62916567Y-60689285D02*
X63011805Y-60736904D01*
X63011805Y-60736904D02*
X63107044Y-60832142D01*
X63107044Y-60832142D02*
X63154663Y-60974999D01*
X63154663Y-60974999D02*
X63154663Y-61213094D01*
X62154663Y-60308332D02*
X62154663Y-59689285D01*
X62154663Y-59689285D02*
X62535615Y-60022618D01*
X62535615Y-60022618D02*
X62535615Y-59879761D01*
X62535615Y-59879761D02*
X62583234Y-59784523D01*
X62583234Y-59784523D02*
X62630853Y-59736904D01*
X62630853Y-59736904D02*
X62726091Y-59689285D01*
X62726091Y-59689285D02*
X62964186Y-59689285D01*
X62964186Y-59689285D02*
X63059424Y-59736904D01*
X63059424Y-59736904D02*
X63107044Y-59784523D01*
X63107044Y-59784523D02*
X63154663Y-59879761D01*
X63154663Y-59879761D02*
X63154663Y-60165475D01*
X63154663Y-60165475D02*
X63107044Y-60260713D01*
X63107044Y-60260713D02*
X63059424Y-60308332D01*
X58024663Y-50238094D02*
X57024663Y-50238094D01*
X57024663Y-50238094D02*
X57024663Y-49999999D01*
X57024663Y-49999999D02*
X57072282Y-49857142D01*
X57072282Y-49857142D02*
X57167520Y-49761904D01*
X57167520Y-49761904D02*
X57262758Y-49714285D01*
X57262758Y-49714285D02*
X57453234Y-49666666D01*
X57453234Y-49666666D02*
X57596091Y-49666666D01*
X57596091Y-49666666D02*
X57786567Y-49714285D01*
X57786567Y-49714285D02*
X57881805Y-49761904D01*
X57881805Y-49761904D02*
X57977044Y-49857142D01*
X57977044Y-49857142D02*
X58024663Y-49999999D01*
X58024663Y-49999999D02*
X58024663Y-50238094D01*
X57119901Y-49285713D02*
X57072282Y-49238094D01*
X57072282Y-49238094D02*
X57024663Y-49142856D01*
X57024663Y-49142856D02*
X57024663Y-48904761D01*
X57024663Y-48904761D02*
X57072282Y-48809523D01*
X57072282Y-48809523D02*
X57119901Y-48761904D01*
X57119901Y-48761904D02*
X57215139Y-48714285D01*
X57215139Y-48714285D02*
X57310377Y-48714285D01*
X57310377Y-48714285D02*
X57453234Y-48761904D01*
X57453234Y-48761904D02*
X58024663Y-49333332D01*
X58024663Y-49333332D02*
X58024663Y-48714285D01*
X51900595Y-67329663D02*
X51900595Y-68139186D01*
X51900595Y-68139186D02*
X51948214Y-68234424D01*
X51948214Y-68234424D02*
X51995833Y-68282044D01*
X51995833Y-68282044D02*
X52091071Y-68329663D01*
X52091071Y-68329663D02*
X52281547Y-68329663D01*
X52281547Y-68329663D02*
X52376785Y-68282044D01*
X52376785Y-68282044D02*
X52424404Y-68234424D01*
X52424404Y-68234424D02*
X52472023Y-68139186D01*
X52472023Y-68139186D02*
X52472023Y-67329663D01*
X52900595Y-67424901D02*
X52948214Y-67377282D01*
X52948214Y-67377282D02*
X53043452Y-67329663D01*
X53043452Y-67329663D02*
X53281547Y-67329663D01*
X53281547Y-67329663D02*
X53376785Y-67377282D01*
X53376785Y-67377282D02*
X53424404Y-67424901D01*
X53424404Y-67424901D02*
X53472023Y-67520139D01*
X53472023Y-67520139D02*
X53472023Y-67615377D01*
X53472023Y-67615377D02*
X53424404Y-67758234D01*
X53424404Y-67758234D02*
X52852976Y-68329663D01*
X52852976Y-68329663D02*
X53472023Y-68329663D01*
X63204663Y-62641666D02*
X62728472Y-62974999D01*
X63204663Y-63213094D02*
X62204663Y-63213094D01*
X62204663Y-63213094D02*
X62204663Y-62832142D01*
X62204663Y-62832142D02*
X62252282Y-62736904D01*
X62252282Y-62736904D02*
X62299901Y-62689285D01*
X62299901Y-62689285D02*
X62395139Y-62641666D01*
X62395139Y-62641666D02*
X62537996Y-62641666D01*
X62537996Y-62641666D02*
X62633234Y-62689285D01*
X62633234Y-62689285D02*
X62680853Y-62736904D01*
X62680853Y-62736904D02*
X62728472Y-62832142D01*
X62728472Y-62832142D02*
X62728472Y-63213094D01*
X62204663Y-62308332D02*
X62204663Y-61641666D01*
X62204663Y-61641666D02*
X63204663Y-62070237D01*
X55275833Y-63199663D02*
X54942500Y-62723472D01*
X54704405Y-63199663D02*
X54704405Y-62199663D01*
X54704405Y-62199663D02*
X55085357Y-62199663D01*
X55085357Y-62199663D02*
X55180595Y-62247282D01*
X55180595Y-62247282D02*
X55228214Y-62294901D01*
X55228214Y-62294901D02*
X55275833Y-62390139D01*
X55275833Y-62390139D02*
X55275833Y-62532996D01*
X55275833Y-62532996D02*
X55228214Y-62628234D01*
X55228214Y-62628234D02*
X55180595Y-62675853D01*
X55180595Y-62675853D02*
X55085357Y-62723472D01*
X55085357Y-62723472D02*
X54704405Y-62723472D01*
X56132976Y-62532996D02*
X56132976Y-63199663D01*
X55894881Y-62152044D02*
X55656786Y-62866329D01*
X55656786Y-62866329D02*
X56275833Y-62866329D01*
X47399424Y-48341666D02*
X47447044Y-48389285D01*
X47447044Y-48389285D02*
X47494663Y-48532142D01*
X47494663Y-48532142D02*
X47494663Y-48627380D01*
X47494663Y-48627380D02*
X47447044Y-48770237D01*
X47447044Y-48770237D02*
X47351805Y-48865475D01*
X47351805Y-48865475D02*
X47256567Y-48913094D01*
X47256567Y-48913094D02*
X47066091Y-48960713D01*
X47066091Y-48960713D02*
X46923234Y-48960713D01*
X46923234Y-48960713D02*
X46732758Y-48913094D01*
X46732758Y-48913094D02*
X46637520Y-48865475D01*
X46637520Y-48865475D02*
X46542282Y-48770237D01*
X46542282Y-48770237D02*
X46494663Y-48627380D01*
X46494663Y-48627380D02*
X46494663Y-48532142D01*
X46494663Y-48532142D02*
X46542282Y-48389285D01*
X46542282Y-48389285D02*
X46589901Y-48341666D01*
X46494663Y-48008332D02*
X46494663Y-47389285D01*
X46494663Y-47389285D02*
X46875615Y-47722618D01*
X46875615Y-47722618D02*
X46875615Y-47579761D01*
X46875615Y-47579761D02*
X46923234Y-47484523D01*
X46923234Y-47484523D02*
X46970853Y-47436904D01*
X46970853Y-47436904D02*
X47066091Y-47389285D01*
X47066091Y-47389285D02*
X47304186Y-47389285D01*
X47304186Y-47389285D02*
X47399424Y-47436904D01*
X47399424Y-47436904D02*
X47447044Y-47484523D01*
X47447044Y-47484523D02*
X47494663Y-47579761D01*
X47494663Y-47579761D02*
X47494663Y-47865475D01*
X47494663Y-47865475D02*
X47447044Y-47960713D01*
X47447044Y-47960713D02*
X47399424Y-48008332D01*
X50038095Y-29954663D02*
X50038095Y-30764186D01*
X50038095Y-30764186D02*
X50085714Y-30859424D01*
X50085714Y-30859424D02*
X50133333Y-30907044D01*
X50133333Y-30907044D02*
X50228571Y-30954663D01*
X50228571Y-30954663D02*
X50419047Y-30954663D01*
X50419047Y-30954663D02*
X50514285Y-30907044D01*
X50514285Y-30907044D02*
X50561904Y-30859424D01*
X50561904Y-30859424D02*
X50609523Y-30764186D01*
X50609523Y-30764186D02*
X50609523Y-29954663D01*
X51609523Y-30954663D02*
X51038095Y-30954663D01*
X51323809Y-30954663D02*
X51323809Y-29954663D01*
X51323809Y-29954663D02*
X51228571Y-30097520D01*
X51228571Y-30097520D02*
X51133333Y-30192758D01*
X51133333Y-30192758D02*
X51038095Y-30240377D01*
D12*
%TO.C,L1*%
X48665000Y-54220000D02*
X48665000Y-61080000D01*
X55135000Y-61080000D02*
X55135000Y-54220000D01*
D13*
%TO.C,C2*%
X60235000Y-30788748D02*
X60235000Y-31311252D01*
X58765000Y-30788748D02*
X58765000Y-31311252D01*
%TO.C,TP2*%
X62651000Y-34950000D02*
G75*
G02*
X60149000Y-34950000I-1251000J0D01*
G01*
X60149000Y-34950000D02*
G75*
G02*
X62651000Y-34950000I1251000J0D01*
G01*
D14*
%TO.C,PS2*%
X54600000Y-47575000D02*
G75*
G02*
X54350000Y-47575000I-125000J0D01*
G01*
X54350000Y-47575000D02*
G75*
G02*
X54600000Y-47575000I125000J0D01*
G01*
D13*
%TO.C,R1*%
X48090000Y-45313641D02*
X48090000Y-45006359D01*
X48850000Y-45313641D02*
X48850000Y-45006359D01*
%TO.C,TP8*%
X63013500Y-57775000D02*
G75*
G02*
X60511500Y-57775000I-1251000J0D01*
G01*
X60511500Y-57775000D02*
G75*
G02*
X63013500Y-57775000I1251000J0D01*
G01*
%TO.C,C6*%
X50110000Y-65482836D02*
X50110000Y-65267164D01*
X49390000Y-65482836D02*
X49390000Y-65267164D01*
%TO.C,TP4*%
X62751000Y-45250000D02*
G75*
G02*
X60249000Y-45250000I-1251000J0D01*
G01*
X60249000Y-45250000D02*
G75*
G02*
X62751000Y-45250000I1251000J0D01*
G01*
%TO.C,C8*%
X55910000Y-66232836D02*
X55910000Y-66017164D01*
X55190000Y-66232836D02*
X55190000Y-66017164D01*
%TO.C,D1*%
X59052500Y-39015000D02*
X59052500Y-40485000D01*
X59052500Y-40485000D02*
X61337500Y-40485000D01*
X61337500Y-39015000D02*
X59052500Y-39015000D01*
%TO.C,R2*%
X58880000Y-63523641D02*
X58880000Y-63216359D01*
X58120000Y-63523641D02*
X58120000Y-63216359D01*
%TO.C,R3*%
X57572500Y-66362258D02*
X57572500Y-65887742D01*
X56527500Y-66362258D02*
X56527500Y-65887742D01*
%TO.C,R5*%
X58630000Y-39846359D02*
X58630000Y-40153641D01*
X57870000Y-39846359D02*
X57870000Y-40153641D01*
%TO.C,C1*%
X47565000Y-34438748D02*
X47565000Y-34961252D01*
X49035000Y-34438748D02*
X49035000Y-34961252D01*
%TO.C,C9*%
X56215000Y-58861252D02*
X56215000Y-58338748D01*
X57685000Y-58861252D02*
X57685000Y-58338748D01*
%TO.C,R6*%
X53653641Y-48220000D02*
X53346359Y-48220000D01*
X53653641Y-48980000D02*
X53346359Y-48980000D01*
%TO.C,C7*%
X53257836Y-63085000D02*
X53042164Y-63085000D01*
X53257836Y-62365000D02*
X53042164Y-62365000D01*
%TO.C,TP9*%
X45251000Y-54500000D02*
G75*
G02*
X42749000Y-54500000I-1251000J0D01*
G01*
X42749000Y-54500000D02*
G75*
G02*
X45251000Y-54500000I1251000J0D01*
G01*
%TO.C,C5*%
X48610000Y-65540580D02*
X48610000Y-65259420D01*
X47590000Y-65540580D02*
X47590000Y-65259420D01*
%TO.C,C4*%
X55510000Y-45734420D02*
X55510000Y-46015580D01*
X56530000Y-45734420D02*
X56530000Y-46015580D01*
%TO.C,J1*%
X41870000Y-34680000D02*
X41870000Y-32080000D01*
X44530000Y-32080000D02*
X41870000Y-32080000D01*
X44530000Y-34680000D02*
X41870000Y-34680000D01*
X44530000Y-34680000D02*
X44530000Y-32080000D01*
X44530000Y-35950000D02*
X44530000Y-37280000D01*
X44530000Y-37280000D02*
X43200000Y-37280000D01*
%TO.C,J2*%
X42640000Y-44320000D02*
X43970000Y-44320000D01*
X42640000Y-45650000D02*
X42640000Y-44320000D01*
X42640000Y-46920000D02*
X42640000Y-49520000D01*
X42640000Y-46920000D02*
X45300000Y-46920000D01*
X42640000Y-49520000D02*
X45300000Y-49520000D01*
X45300000Y-46920000D02*
X45300000Y-49520000D01*
%TO.C,J3*%
X45580000Y-68030000D02*
X44250000Y-68030000D01*
X45580000Y-66700000D02*
X45580000Y-68030000D01*
X45580000Y-65430000D02*
X45580000Y-62830000D01*
X45580000Y-65430000D02*
X42920000Y-65430000D01*
X45580000Y-62830000D02*
X42920000Y-62830000D01*
X42920000Y-65430000D02*
X42920000Y-62830000D01*
%TO.C,D3*%
X61885000Y-61210000D02*
X61885000Y-59740000D01*
X61885000Y-59740000D02*
X59600000Y-59740000D01*
X59600000Y-61210000D02*
X61885000Y-61210000D01*
%TO.C,D2*%
X55285000Y-48700000D02*
X55285000Y-50985000D01*
X55285000Y-50985000D02*
X56755000Y-50985000D01*
X56755000Y-50985000D02*
X56755000Y-48700000D01*
%TO.C,U2*%
X51362500Y-63765000D02*
X51122500Y-63435000D01*
X51602500Y-63435000D01*
X51362500Y-63765000D01*
G36*
X51362500Y-63765000D02*
G01*
X51122500Y-63435000D01*
X51602500Y-63435000D01*
X51362500Y-63765000D01*
G37*
X52662500Y-66835000D02*
X53462500Y-66835000D01*
X52662500Y-66835000D02*
X51862500Y-66835000D01*
X52662500Y-63715000D02*
X53462500Y-63715000D01*
X52662500Y-63715000D02*
X51862500Y-63715000D01*
%TO.C,R7*%
X60903641Y-62405000D02*
X60596359Y-62405000D01*
X60903641Y-61645000D02*
X60596359Y-61645000D01*
%TO.C,R4*%
X55796359Y-64305000D02*
X56103641Y-64305000D01*
X55796359Y-63545000D02*
X56103641Y-63545000D01*
%TO.C,C3*%
X47960000Y-48315580D02*
X47960000Y-48034420D01*
X48980000Y-48315580D02*
X48980000Y-48034420D01*
%TO.C,U1*%
X52150000Y-31590000D02*
X55910000Y-31590000D01*
X52150000Y-38410000D02*
X55910000Y-38410000D01*
X55910000Y-31590000D02*
X55910000Y-32850000D01*
X55910000Y-38410000D02*
X55910000Y-37150000D01*
X50870000Y-31690000D02*
X50630000Y-31360000D01*
X51110000Y-31360000D01*
X50870000Y-31690000D01*
G36*
X50870000Y-31690000D02*
G01*
X50630000Y-31360000D01*
X51110000Y-31360000D01*
X50870000Y-31690000D01*
G37*
%TD*%
M02*
